<svg xmlns="http://www.w3.org/2000/svg" xmlns:svgjs="http://svgjs.com/svgjs" xmlns:xlink="http://www.w3.org/1999/xlink" id="freepik_stories-chatting" class="animated" version="1.1" viewBox="0 0 500 500"><style>@keyframes lightSpeedRight{60%{transform:skewX(10deg);opacity:1}80%{transform:skewX(-2deg)}}@keyframes lightSpeedLeft{60%{transform:skewX(-10deg);opacity:1}80%{transform:skewX(2deg)}}@keyframes wind{0%{transform:rotate(0deg)}25%{transform:rotate(1deg)}75%{transform:rotate(-1deg)}}@keyframes zoomIn{0%{opacity:0;transform:scale(.5)}}svg#freepik_stories-chatting:not(.animated) .animable{opacity:0}svg#freepik_stories-chatting.animated #freepik--character-2--inject-82{animation:1s 1 forwards cubic-bezier(.36,-.01,.5,1.38) lightSpeedRight;animation-delay:0s}svg#freepik_stories-chatting.animated #freepik--character-1--inject-82{animation:1s 1 forwards cubic-bezier(.36,-.01,.5,1.38) lightSpeedLeft,1.5s Infinite linear wind;animation-delay:0s,1s}svg#freepik_stories-chatting.animated #el5h5fdcu1z4,svg#freepik_stories-chatting.animated #el7shvwzw6x0j{animation:1.6s 1 forwards cubic-bezier(.36,-.01,.5,1.38) zoomIn}svg#freepik_stories-chatting.animated #el7shvwzw6x0j{animation-delay:0s}svg#freepik_stories-chatting.animated #el5h5fdcu1z4{animation-delay:.08s;opacity:0}svg#freepik_stories-chatting.animated #elb9f85kse6ub,svg#freepik_stories-chatting.animated #eludy47mldxd{animation:1.6s 1 forwards cubic-bezier(.36,-.01,.5,1.38) zoomIn;opacity:0}svg#freepik_stories-chatting.animated #eludy47mldxd{animation-delay:.16s}svg#freepik_stories-chatting.animated #elb9f85kse6ub{animation-delay:.24s}svg#freepik_stories-chatting.animated #el6ll24e0yrtx,svg#freepik_stories-chatting.animated #elbfp9ysk3og{animation:1.6s 1 forwards cubic-bezier(.36,-.01,.5,1.38) zoomIn;opacity:0}svg#freepik_stories-chatting.animated #elbfp9ysk3og{animation-delay:.32s}svg#freepik_stories-chatting.animated #el6ll24e0yrtx{animation-delay:.4s}svg#freepik_stories-chatting.animated #el3c82ezf8ukc{animation:1.6s 1 forwards cubic-bezier(.36,-.01,.5,1.38) zoomIn;animation-delay:.48s;opacity:0}svg#freepik_stories-chatting.animated #eloxqm5nvy8s{animation-delay:.56s}svg#freepik_stories-chatting.animated #el4isqzc9ez4h,svg#freepik_stories-chatting.animated #elifv17rbrvu,svg#freepik_stories-chatting.animated #eloxqm5nvy8s{animation:1.6s 1 forwards cubic-bezier(.36,-.01,.5,1.38) zoomIn;opacity:0}svg#freepik_stories-chatting.animated #elifv17rbrvu{animation-delay:.64s}svg#freepik_stories-chatting.animated #el4isqzc9ez4h{animation-delay:.72s}svg#freepik_stories-chatting.animated #el5p9f46reate,svg#freepik_stories-chatting.animated #elfdw0zwqi92m{animation:1.6s 1 forwards cubic-bezier(.36,-.01,.5,1.38) zoomIn;opacity:0}svg#freepik_stories-chatting.animated #elfdw0zwqi92m{animation-delay:.8s}svg#freepik_stories-chatting.animated #el5p9f46reate{animation-delay:.88s}svg#freepik_stories-chatting.animated #elmw29c44lvvh{animation:1.6s 1 forwards cubic-bezier(.36,-.01,.5,1.38) zoomIn;animation-delay:.96s;opacity:0}svg#freepik_stories-chatting.animated #el9xv3xbb2ft,svg#freepik_stories-chatting.animated #elrl8cao0t15r{animation:1.6s 1 forwards cubic-bezier(.36,-.01,.5,1.38) zoomIn;opacity:0;animation-delay:1.04s}svg#freepik_stories-chatting.animated #el9xv3xbb2ft{animation-delay:1.12s}svg#freepik_stories-chatting.animated #eliubfisba0l9{animation-delay:1.2s}svg#freepik_stories-chatting.animated #eld35su5e42fm,svg#freepik_stories-chatting.animated #elhc01gpatub,svg#freepik_stories-chatting.animated #eliubfisba0l9{animation:1.6s 1 forwards cubic-bezier(.36,-.01,.5,1.38) zoomIn;opacity:0}svg#freepik_stories-chatting.animated #elhc01gpatub{animation-delay:1.28s}svg#freepik_stories-chatting.animated #eld35su5e42fm{animation-delay:1.36s}svg#freepik_stories-chatting.animated #elf3nc4jsjgdm,svg#freepik_stories-chatting.animated #eli285e9y63hn{animation:1.6s 1 forwards cubic-bezier(.36,-.01,.5,1.38) zoomIn;animation-delay:1.44s;opacity:0}svg#freepik_stories-chatting.animated #eli285e9y63hn{animation-delay:1.52s}svg#freepik_stories-chatting.animated #freepik--speech-bubbles--inject-82{animation:1.6s 1 forwards cubic-bezier(.36,-.01,.5,1.38) zoomIn,1.5s Infinite linear wind;animation-delay:0s,1.6s}</style><g id="freepik--background-complete--inject-82" class="animable" style="transform-origin:246.5px 182.04px"><rect id="elswv7zcevhfs" width="56.6" height="68.65" x="61.78" y="52.84" style="fill:#ebebeb;transform-origin:90.08px 87.165px" class="animable"/><rect id="el9zemfd4tu4p" width="43.66" height="56.12" x="68.25" y="59.1" style="fill:#fff;transform-origin:90.08px 87.16px" class="animable"/><rect id="elvhmmitsyxkm" width="1.7" height="56.12" x="68.25" y="59.1" style="fill:#dbdbdb;transform-origin:69.1px 87.16px" class="animable"/><rect id="el6pw2x6wdyqt" width="1.7" height="68.65" x="118.37" y="52.84" style="fill:#dbdbdb;transform-origin:119.22px 87.165px" class="animable"/><rect id="el5a4hoe8pzpk" width="10.3" height="30.67" x="82.88" y="66.84" style="fill:#dbdbdb;transform-origin:88.03px 82.175px" class="animable"/><rect id="el2i7s3cknnwk" width="27.45" height="15.03" x="78.39" y="87.72" style="fill:none;stroke:#ebebeb;stroke-miterlimit:10;transform-origin:92.115px 95.235px" class="animable"/><rect id="elcmaaj0v18x8" width="56.6" height="68.65" x="134.58" y="106.81" style="fill:#ebebeb;transform-origin:162.88px 141.135px" class="animable"/><rect id="elb26bfgwpdsh" width="43.66" height="56.12" x="141.04" y="113.07" style="fill:#fff;transform-origin:162.87px 141.13px" class="animable"/><rect id="el2a8v86nrfoi" width="1.7" height="56.12" x="141.04" y="113.07" style="fill:#dbdbdb;transform-origin:141.89px 141.13px" class="animable"/><rect id="el8ty285547l5" width="1.7" height="68.65" x="191.17" y="106.81" style="fill:#dbdbdb;transform-origin:192.02px 141.135px" class="animable"/><rect id="elht6uwq92fu5" width="8.82" height="22.3" x="158.65" y="127.58" style="fill:#ebebeb;transform-origin:163.06px 138.73px" class="animable"/><rect id="elyooerr7m6o" width="23.69" height="15.37" x="153.06" y="141.13" style="fill:none;stroke:#dbdbdb;stroke-miterlimit:10;transform-origin:164.905px 148.815px" class="animable"/><g id="el0osqrb76ej1b"><rect id="elonzqwgpkhh" width="26.48" height="11.19" x="409.79" y="50.97" style="fill:#ebebeb;transform-origin:423.03px 56.565px;transform:rotate(180deg)" class="animable"/></g><g id="el2tb6o2j2qwi"><rect id="elcjcqwt41l3r" width="26.48" height="11.19" x="424.56" y="36.86" style="fill:#ebebeb;transform-origin:437.8px 42.455px;transform:rotate(180deg)" class="animable"/></g><g id="el8oq9rejp5zd"><rect id="eljctuoasrbvi" width="26.48" height="11.19" x="395.02" y="36.86" style="fill:#ebebeb;transform-origin:408.26px 42.455px;transform:rotate(180deg)" class="animable"/></g><g id="elndsvzycax4h"><rect id="eljy0779ucw5r" width="26.48" height="11.19" x="41.96" y="36.86" style="fill:#ebebeb;transform-origin:55.2px 42.455px;transform:rotate(180deg)" class="animable"/></g><g id="eljlzggwc300b"><rect id="elza9gs0psd1" width="26.48" height="11.19" x="56.73" y="316.03" style="fill:#ebebeb;transform-origin:69.97px 321.625px;transform:rotate(180deg)" class="animable"/></g><g id="el264xpnkeavm"><rect id="elp69e9dxpwuh" width="26.48" height="11.19" x="41.96" y="301.92" style="fill:#ebebeb;transform-origin:55.2px 307.515px;transform:rotate(180deg)" class="animable"/></g><g id="el9lz9vmx38ln"><rect id="elmqzjinsnab" width="26.48" height="11.19" x="424.56" y="316.02" style="fill:#ebebeb;transform-origin:437.8px 321.615px;transform:rotate(180deg)" class="animable"/></g><rect id="elrfi05vrbnj" width="26.48" height="11.19" x="259.35" y="97.78" style="fill:#ebebeb;transform-origin:272.59px 103.375px" class="animable"/><rect id="elqrv2r19fcde" width="26.48" height="11.19" x="244.58" y="111.89" style="fill:#ebebeb;transform-origin:257.82px 117.485px" class="animable"/></g><g id="freepik--Shadow--inject-82" class="animable" style="transform-origin:250px 441.93px"><ellipse cx="250" cy="441.93" rx="184.84" ry="23.33" style="fill:#ebebeb;transform-origin:250px 441.93px" id="elfdyhy60uudj" class="animable"/></g><g id="freepik--Floor--inject-82" class="animable" style="transform-origin:249.995px 333.92px"><polygon points="37.28 333.92 90.46 333.68 143.64 333.59 250 333.42 356.36 333.58 409.54 333.67 462.71 333.92 409.54 334.16 356.36 334.25 250 334.42 143.64 334.25 90.46 334.16 37.28 333.92" style="fill:#263238;transform-origin:249.995px 333.92px" id="elwhymluxbxln" class="animable"/></g><g id="freepik--character-2--inject-82" class="animable" style="transform-origin:322.385px 217.591px"><polygon points="383.73 249.9 417.92 249.9 437.49 152.33 406.18 137.94 383.73 249.9" style="fill:#dbdbdb;transform-origin:410.61px 193.92px" id="el22ie7v76ekt" class="animable"/><polygon points="285.85 249.9 383.73 249.9 406.18 137.94 308.31 137.94 285.85 249.9" style="fill:#ebebeb;transform-origin:346.015px 193.92px" id="elik5fxsh3hc" class="animable"/><g id="elt8thzkp789c"><rect id="elq0l8kobcnd" width="52.41" height="107.53" x="401.28" y="197.55" style="fill:#dbdbdb;transform-origin:427.485px 251.315px;transform:rotate(180deg)" class="animable"/></g><polygon points="260.7 305.08 275.02 305.08 296.35 197.55 260.7 197.55 260.7 305.08" style="fill:#dbdbdb;transform-origin:278.525px 251.315px" id="elblca9hcb5wp" class="animable"/><g id="eli1frbp1wnvq"><rect id="elldbt9dslcxc" width="28.8" height="107.53" x="372.49" y="197.55" style="fill:#ebebeb;transform-origin:386.89px 251.315px;transform:rotate(180deg)" class="animable"/></g><g id="eleqa6ob8nzr9"><rect id="elhku9b1aamlr" width="28.8" height="107.53" x="231.9" y="197.55" style="fill:#ebebeb;transform-origin:246.3px 251.315px;transform:rotate(180deg)" class="animable"/></g><g id="el60v3qxbqmbn"><rect id="elmmso9on2xkb" width="111.79" height="55.18" x="260.7" y="249.9" style="fill:#ebebeb;transform-origin:316.595px 277.49px;transform:rotate(180deg)" class="animable"/></g><g id="elig8kab7hnwb"><rect id="elurgdlqq5rf8" width="111.79" height="24.08" x="260.7" y="226.04" style="fill:#ebebeb;transform-origin:316.595px 238.08px;transform:rotate(180deg)" class="animable"/></g><path d="M394.23,197.55l-10.87.18-10.87.12.3-.3.11,12.58,0,12.59q.06,12.59,0,25.16c0,8.39,0,16.78-.14,25.17s-.17,16.78-.33,25.17q-.25-12.59-.34-25.17c-.09-8.39-.11-16.78-.13-25.17s0-16.77,0-25.16l0-12.59.11-12.58v-.31h.3l10.87.13Z" style="fill:#dbdbdb;transform-origin:383.091px 247.73px" id="elmayw5zkct4q" class="animable"/><path d="M260.7,197.55c.21,8.42.3,16.84.38,25.26l.12,25.26-.12,25.26L261,286l-.25,12.63L260.46,286l-.14-12.63-.12-25.26.12-25.26C260.4,214.39,260.49,206,260.7,197.55Z" style="fill:#dbdbdb;transform-origin:260.7px 248.09px" id="eliky755ge4k" class="animable"/><path d="M260.7,249.9c9.32-.21,18.63-.31,27.95-.39l27.94-.11,28,.11,14,.14,14,.25-14,.24-14,.14-28,.12-27.94-.12C279.33,250.2,270,250.1,260.7,249.9Z" style="fill:#dbdbdb;transform-origin:316.645px 249.9px" id="elhzx0rakqh3a" class="animable"/><path d="M260.7,226c9.32-.2,18.63-.3,27.95-.38l27.94-.12,28,.12,14,.14,14,.24-14,.25-14,.14-28,.11-27.94-.11C279.33,226.35,270,226.25,260.7,226Z" style="fill:#dbdbdb;transform-origin:316.645px 226px" id="eltakrqlxesk" class="animable"/><polygon points="433.77 305.08 434.48 313.79 436.14 333.92 443.73 333.92 445.38 313.79 446.09 305.08 433.77 305.08" style="fill:#c7c7c7;transform-origin:439.93px 319.5px" id="eluzz6y2qvz88" class="animable"/><polygon points="446.09 305.08 433.77 305.08 434.48 313.79 445.38 313.79 446.09 305.08" style="fill:#a6a6a6;transform-origin:439.93px 309.435px" id="elx8y7si299y" class="animable"/><polygon points="380.73 305.08 381.44 313.79 383.09 333.92 390.68 333.92 392.33 313.79 393.04 305.08 380.73 305.08" style="fill:#c7c7c7;transform-origin:386.885px 319.5px" id="elz7w29psbp1s" class="animable"/><polygon points="393.04 305.08 380.73 305.08 381.44 313.79 392.33 313.79 393.04 305.08" style="fill:#a6a6a6;transform-origin:386.885px 309.435px" id="eltrvsyg51bz" class="animable"/><polygon points="292.74 305.08 293.45 313.79 295.11 333.92 302.69 333.92 304.35 313.79 305.06 305.08 292.74 305.08" style="fill:#c7c7c7;transform-origin:298.9px 319.5px" id="elsngzib5map" class="animable"/><polygon points="305.06 305.08 292.74 305.08 293.45 313.79 304.35 313.79 305.06 305.08" style="fill:#a6a6a6;transform-origin:298.9px 309.435px" id="elzc7esowuxqd" class="animable"/><polygon points="239.68 305.08 240.39 313.79 242.05 333.92 249.63 333.92 251.29 313.79 252 305.08 239.68 305.08" style="fill:#c7c7c7;transform-origin:245.84px 319.5px" id="ellr215d0qwpl" class="animable"/><polygon points="239.68 305.08 240.39 313.79 251.29 313.79 252 305.08 239.68 305.08" style="fill:#a6a6a6;transform-origin:245.84px 309.435px" id="elrqsxiaq3hb" class="animable"/><path d="M192,322.19c2.2,1.29,69.91,15.44,72.83,14.35,1.11-.41,3.75-10.15,6.6-22,.62-2.56,1.24-5.21,1.85-7.9,4-17.48,7.87-36.12,7.87-36.12l-45.27-9.6-6.62,36.38-1.46,8s-28.34,6.18-31.42,7.72S189.8,320.91,192,322.19Z" style="fill:#f7a9a0;transform-origin:236.23px 298.76px" id="el6xds7sk2i9b" class="animable"/><path d="M191.77,322.25c2.22,1.29,70.3,15.52,73.24,14.43,1.36-.51,5-14.86,8.5-30.08l-44.27-9.39-1.46,8s-28.51,6.21-31.6,7.76S189.56,321,191.77,322.25Z" style="fill:#ff501a;transform-origin:232.295px 316.975px" id="elw4p9e9xx3jb" class="animable"/><path d="M193.32,319.73c11.47,2.1,57.54,11.68,68.72,14.63.09,0,.08.09,0,.07-11.42-1.83-57.41-11.78-68.75-14.51C193,319.86,193.08,319.68,193.32,319.73Z" style="fill:#263238;transform-origin:227.604px 327.077px" id="el10rvbghm7smf" class="animable"/><path d="M226.7,302.37c4.67.1,10,1.94,12.78,5.85.1.15-.11.3-.25.23a64.45,64.45,0,0,0-12.63-5.51A.29.29,0,0,1,226.7,302.37Z" style="fill:#263238;transform-origin:232.942px 305.418px" id="eljpep1revxni" class="animable"/><path d="M223.05,303.64c4.67.1,10,1.94,12.78,5.86.1.15-.11.3-.25.22A65.05,65.05,0,0,0,223,304.21.29.29,0,0,1,223.05,303.64Z" style="fill:#263238;transform-origin:229.319px 306.691px" id="elzv4rz598vr" class="animable"/><path d="M219.4,304.92c4.66.1,10,1.94,12.78,5.86.1.15-.11.3-.25.22a65.05,65.05,0,0,0-12.63-5.51A.29.29,0,0,1,219.4,304.92Z" style="fill:#263238;transform-origin:225.643px 307.97px" id="elmctxmplhkb" class="animable"/><path d="M215.75,306.2c4.66.1,10,1.93,12.78,5.85.1.15-.11.3-.25.23a63.86,63.86,0,0,0-12.63-5.51A.29.29,0,0,1,215.75,306.2Z" style="fill:#263238;transform-origin:221.993px 309.248px" id="el56s5a0osnz8" class="animable"/><path d="M221.25,297.06c2.66,3.14,6.58,5,10,7.16a.57.57,0,0,0,.82-.41.13.13,0,0,0,.14-.14,24.56,24.56,0,0,0-4.77-11.74c-1.54-2-4.6-3.75-6.88-1.68S219.7,295.23,221.25,297.06Zm-.39-3.85c.24-5.09,5-1.4,6.07.1a24.44,24.44,0,0,1,1.84,3.07,72.81,72.81,0,0,1,2.94,6.79c-1.62-1.16-3.32-2.17-5-3.27C224.76,298.59,220.73,296,220.86,293.21Z" style="fill:#263238;transform-origin:225.789px 296.801px" id="el9dlnvjri2hh" class="animable"/><path d="M248.64,300c-.5-3-4-3.53-6.43-2.95a24.5,24.5,0,0,0-11,6.23.13.13,0,0,0,0,.2.57.57,0,0,0,.39.83c4,.44,8.26,1.41,12.29.61C246.23,304.41,249.12,302.82,248.64,300Zm-10.82,3.74c-2-.17-3.94-.44-5.93-.53a71.54,71.54,0,0,1,6.52-3.5,25,25,0,0,1,3.35-1.26c1.78-.5,7.79-.45,4.82,3.69C244.93,304.38,240.18,303.9,237.82,303.7Z" style="fill:#263238;transform-origin:239.917px 301.034px" id="el24llnfg8w0c" class="animable"/><path d="M254.26,359.49c2.46.69,71.54-2.88,74.09-4.68,1-.68,1.27-28.41.54-31.08-2.45-9-13.22-36.25-13.22-36.25l-46.22,2.25L284,325.92l.62,8.09s-25.84,13.2-28.42,15.48S251.81,358.81,254.26,359.49Z" style="fill:#f7a9a0;transform-origin:291.202px 323.529px" id="els1sy61ogg8g" class="animable"/><path d="M254.06,359.6c2.46.69,71.93-2.9,74.49-4.71,1.19-.83,1-15.64.56-31.25l-45.2,2.2.63,8.14s-26,13.27-28.58,15.56S251.59,358.92,254.06,359.6Z" style="fill:#ff501a;transform-origin:291.165px 341.663px" id="elhb26321ppkw" class="animable"/><path d="M254.91,356.77c11.63-.88,58.62-3.37,70.18-3.36.1,0,.1.07,0,.07-11.51,1.14-58.52,3.24-70.18,3.48C254.67,357,254.66,356.79,254.91,356.77Z" style="fill:#263238;transform-origin:289.946px 355.188px" id="elrkf0jdnhv3o" class="animable"/><path d="M282.76,331.48c4.54-1.09,10.18-.68,13.85,2.41.14.11,0,.32-.18.28a63.86,63.86,0,0,0-13.62-2.11A.3.3,0,0,1,282.76,331.48Z" style="fill:#263238;transform-origin:289.612px 332.554px" id="elsfc3xj3nh9" class="animable"/><path d="M279.56,333.64c4.54-1.09,10.18-.67,13.85,2.41.14.12,0,.32-.18.28a64.69,64.69,0,0,0-13.62-2.11A.29.29,0,0,1,279.56,333.64Z" style="fill:#263238;transform-origin:286.382px 334.715px" id="ell0l21jqsa3" class="animable"/><path d="M276.35,335.81c4.54-1.09,10.18-.68,13.85,2.4.14.12,0,.32-.18.28a64.48,64.48,0,0,0-13.62-2.1A.3.3,0,0,1,276.35,335.81Z" style="fill:#263238;transform-origin:283.202px 336.879px" id="elmoqunq6mynf" class="animable"/><path d="M273.15,338c4.54-1.09,10.18-.68,13.85,2.41.14.12,0,.32-.18.28a64.69,64.69,0,0,0-13.62-2.11A.29.29,0,0,1,273.15,338Z" style="fill:#263238;transform-origin:279.971px 339.074px" id="el9hgf0bx4bho" class="animable"/><path d="M276.14,327.74c3.37,2.35,7.65,3.16,11.5,4.37a.57.57,0,0,0,.69-.61c.08,0,.14-.08.1-.17a24.54,24.54,0,0,0-7.6-10.13c-2-1.51-5.41-2.45-7.08.12S274.17,326.37,276.14,327.74Zm-1.35-3.63c-1.07-5,4.46-2.62,5.89-1.45a25.18,25.18,0,0,1,2.56,2.5,71.31,71.31,0,0,1,4.57,5.82c-1.86-.71-3.76-1.25-5.64-1.89C279.93,328.32,275.37,326.86,274.79,324.11Z" style="fill:#263238;transform-origin:280.792px 325.919px" id="elfmap8i33y3t" class="animable"/><path d="M303.37,323.56c-1.26-2.8-4.77-2.4-7-1.22a24.58,24.58,0,0,0-9.07,8.84.13.13,0,0,0,.07.19.57.57,0,0,0,.59.71c4-.6,8.34-.74,12-2.55C302.17,328.48,304.55,326.21,303.37,323.56Zm-9.52,6.37c-2,.34-3.92.59-5.86,1a71.81,71.81,0,0,1,5.41-5.05,26.09,26.09,0,0,1,2.92-2.07c1.59-.93,7.42-2.41,5.59,2.35C300.91,328.78,296.19,329.53,293.85,329.93Z" style="fill:#263238;transform-origin:295.482px 326.761px" id="elp0lico6m8x" class="animable"/><path d="M360.28,220.2c-13.77,15.33-60,3.22-62.8,9.32-2.43,5.39,31.43,89.42,31.43,89.42l-49,4.45s-47.44-92.06-31.85-119.65c8.42-14.89,45.52-9,67.91-11.68,6.75-.82,9.92-14.75,9.92-14.75h40S376,202.67,360.28,220.2Z" style="fill:#455a64;transform-origin:307.003px 250.35px" id="elg1rv30ftrdc" class="animable"/><path d="M262.12,195.2l42.42,32.46c14.09-.3,44.92,4.58,55.73-7.47,15.75-17.53,5.65-42.88,5.65-42.88h-40s-3.17,13.93-9.92,14.75C300.28,194,277.33,191.62,262.12,195.2Z" style="fill:#263238;transform-origin:315.614px 202.85px" id="elwdd9vrdj93r" class="animable"/><path d="M277.12,313.87c1.39-.44,14.49-1.9,17.38-2.21,5.78-.63,24-2.33,27.29-2.32.09,0,.1.14,0,.16-2.86.6-14.48,1.95-17.37,2.25-5.79.59-25.68,2.52-27.29,2.36A.12.12,0,0,1,277.12,313.87Z" style="fill:#263238;transform-origin:299.433px 311.73px" id="elnven2ff16a" class="animable"/><path d="M291,223.71c3.25-1.61,19.53-1,26.4-1.13l10.35-.25c3.06-.07,6.13-.11,9.18-.34,5.77-.44,11.53-1.77,15.93-5.54a26.34,26.34,0,0,0,7.86-12.95c1.7-6,1.52-12.33,1.23-18.52-.07-1.52-.17-3-.27-4.56,0-.08.15-.1.16,0,1.35,11.07,2.37,23.44-4.83,33a22.88,22.88,0,0,1-12.88,8.45c-5.91,1.5-12.17,1.33-18.24,1.47l-20.45.45c-3.41.08-12,.19-13.44,1.27-1.68,1.29,8.05,31.35,10.38,37.46q7,18.42,13.87,36.9c.55,1.48,2.09,5.78,2.61,7.28.09.28-.4.47-.52.19-2.56-6.05-5.86-15-8.25-21.12s-4.77-12.17-7.12-18.27C298.18,255.22,288.13,225.12,291,223.71Z" style="fill:#263238;transform-origin:326.648px 243.69px" id="elz3uwk62tx6" class="animable"/><path d="M246.27,206.41c2.68-5.91,7.81-9.81,15.8-11.25.14,0,.13.17,0,.21-7,2-11.92,4.76-14.82,10.57a25.83,25.83,0,0,0-2.16,11.95c.35,11.69,4.52,28.62,6.9,36.73s5.22,16.1,8.26,24,10,24.39,10.5,25.41a.08.08,0,0,1-.14.08c-3.17-5.35-13-29.23-18.55-46.63C249.45,249.23,240.5,219.1,246.27,206.41Z" style="fill:#263238;transform-origin:257.564px 249.655px" id="elvt0t91o8hae" class="animable"/><path d="M228,295l42.7,9.1s-34.62-91-20.45-102.65c3.93-3.23,12.49-4.35,22.67,0,15.2,6.56,32.79,19.94,49.38,24.84,15.53,4.58,34,.37,40.31-6.62,13.34-14.67,3.31-42.4,3.31-42.4l-47.46-2.07s1,2.12-1.64,4.45c0,0-40.05-8.78-54.1-.2C237.38,195,228,295,228,295Z" style="fill:#455a64;transform-origin:298.769px 239.65px" id="el0pwl38wpe4vq" class="animable"/><path d="M342.15,180.51a.1.1,0,0,1,.19,0,31.07,31.07,0,0,0,.48,6.17,10.75,10.75,0,0,0,2.77,5.13c3,3,7.34,4.09,11.29,5.33.21.07.18.44-.06.4-4.39-.67-9-1.78-12.2-5.08a10.6,10.6,0,0,1-2.84-5.52A13.22,13.22,0,0,1,342.15,180.51Z" style="fill:#263238;transform-origin:349.283px 188.992px" id="elt34gudj6o4j" class="animable"/><path d="M251.2,199.71c5.88-3.7,15.07-.89,19.47.79.1,0,.05.19,0,.15-4.05-1.45-14.12-3.66-19.51.16-12.45,8.82,7.12,66.68,19.58,102.79.18.51-.24.38-.47-.12-1.8-3.94-20.13-52.57-23.19-75.62C246.48,223.6,242.72,205,251.2,199.71Z" style="fill:#263238;transform-origin:258.259px 250.907px" id="el9885bz8dxfa" class="animable"/><path d="M233.24,286.19c1.16,0,11.07,2.16,13.26,2.65,4.36,1,18,4.33,20.39,5.23.06,0,0,.16-.05.15-2.27-.21-11.08-2.1-13.26-2.6-4.36-1-19.31-4.6-20.41-5.19C233.08,286.38,233.13,286.2,233.24,286.19Z" style="fill:#263238;transform-origin:250.019px 290.205px" id="elb0apmor8mni" class="animable"/><path d="M253.07,198.14c4-2.16,8.67-2.52,13.06-2a46,46,0,0,1,13.35,4.18c8.95,4.09,17.47,9.09,26.43,13.16s18.42,7.21,28.23,7.51c8.4.26,19-1.22,24.41-8.76,8.32-11.64,3.47-31.69,3.38-33,0-.1.13-.09.15,0,6.45,24.65-1.85,34.22-7.45,38.24-4.45,3.2-10.84,4-15.06,4.36-9.76.83-19.55-1.56-28.61-5.17-9.27-3.69-18-8.67-26.86-13.21-8.52-4.36-18-8.86-27.76-6.36a24.58,24.58,0,0,0-3.23,1.1C253.05,198.26,253,198.17,253.07,198.14Z" style="fill:#263238;transform-origin:308.731px 200.577px" id="elj6rj7sngclh" class="animable"/><path d="M299.05,162.06l7.71-.28a23.67,23.67,0,0,0,1.61-14.27c-.2-1.11,2.81,5.12,2.3,14.14,8.14-.3,21.25-.9,30.91-1.35,0-3.78.09-7.28.09-7.28a43.19,43.19,0,0,0,2,7.2l3.86-.19a148.3,148.3,0,0,1-.25-16.09A51.69,51.69,0,0,0,353,159.75c6.13-.35,10.16-.69,9.88-1-9.91-10.08-3.49-16.61-6.69-25.82-3.83-11-13.61-12.23-13.83-20.67-.2-6.87.38-32.21-9.72-32.33,0,0-8.57-7.71-19.38-2.8-13.37,6.06-6.86,38.33-7.54,42.69-1,6.22-3.75,8.57-5.51,15.7s1.71,11.74,2.36,16.53S297.51,162.14,299.05,162.06Z" style="fill:#263238;transform-origin:330.84px 118.778px" id="eld7fyw2yderp" class="animable"/><path d="M363.1,157.25a23.58,23.58,0,0,1-3.34-5.82,12.5,12.5,0,0,1-.36-6.44,68.39,68.39,0,0,0,.72-6.85,17.8,17.8,0,0,0-1.1-7,15.77,15.77,0,0,0-4.06-5.87,42.22,42.22,0,0,0-5.53-4.15,25.44,25.44,0,0,1-5.14-4.22,12.37,12.37,0,0,1-2.83-6,11.55,11.55,0,0,0,2.17,6.49,23.24,23.24,0,0,0,5,4.8,53.18,53.18,0,0,1,5.17,4.25,15.15,15.15,0,0,1,3.53,5.32,17.78,17.78,0,0,1,1,6.35c0,2.2-.28,4.43-.43,6.73a22.68,22.68,0,0,0,0,3.5,10.11,10.11,0,0,0,1,3.44A19.25,19.25,0,0,0,363.1,157.25Z" style="fill:#263238;transform-origin:352.28px 134.075px" id="elcsqwsrpnb6b" class="animable"/><path d="M306,89.17a32.29,32.29,0,0,0-1.65,8c-.27,2.71.25,15.36.14,18.07l-.18,4a20.28,20.28,0,0,1-.52,3.86,21.11,21.11,0,0,1-3.56,6.94,31.93,31.93,0,0,0-2.14,3.6,18.83,18.83,0,0,0-1.41,4,26.93,26.93,0,0,0-.49,4.17,16.5,16.5,0,0,0,.36,4.2c.28,1.38.72,2.69,1.1,4a21,21,0,0,1,.75,3.9,8.15,8.15,0,0,1-3.18,6.93,8.3,8.3,0,0,0,4-6.95,19.83,19.83,0,0,0-.47-4.14c-.28-1.35-.67-2.64-.86-3.94a21,21,0,0,1,.43-7.76,17.51,17.51,0,0,1,1.34-3.62,28.56,28.56,0,0,1,2.06-3.38,41.38,41.38,0,0,0,2.19-3.54,16,16,0,0,0,1.51-4,20.69,20.69,0,0,0,.44-4.18c0-1.37,0-2.72,0-4.08,0-2.7-.73-15.34-.67-18A38,38,0,0,1,306,89.17Z" style="fill:#263238;transform-origin:300.61px 125.005px" id="ell5olhj5xo5f" class="animable"/><path d="M329.2,127.93c-3.95,16.07-13.53,41-22,40.9-7.72-.12-25-13.81-32.16-18.3s9-22.16,13.11-19.3c6.4,4.43,16,12.34,17.62,11.82,2-.64,4.59-5.61,16.1-20.26C326.61,116.8,330.88,121.09,329.2,127.93Z" style="fill:#f7a9a0;transform-origin:301.403px 144.385px" id="eljhhq1pgc369" class="animable"/><path d="M280.41,124.42c-3.4-1.2-7.21-2.85-11-2.78s-6.91,5.06-6.91,6.48,1.42,10.34,5.2,10.34,1.5-6.84,1.64-7.63.29-1.78,1-1.71,13.19,6,13.19,6Z" style="fill:#f7a9a0;transform-origin:273.015px 130.049px" id="elwl6k9q93kin" class="animable"/><path d="M280.17,124.94c-.22,0-10.34-4-14.12-3.92s-6.92,5.06-6.92,6.49,1.43,10.34,5.21,10.34,1.49-6.85,1.64-7.63.28-1.79,1-1.72,13.19,6,13.19,6Z" style="fill:#f7a9a0;transform-origin:269.65px 129.434px" id="eli4nmsiry3jl" class="animable"/><path d="M265.62,137.37a4.44,4.44,0,0,0,.63-2.24,7.81,7.81,0,0,0-.14-2.41,13.56,13.56,0,0,1-.46-2.08,4.27,4.27,0,0,1,.53-2c.29-.53.85-.34,1.32-.18a19.07,19.07,0,0,1,2.06.93c.72.36,1.44.74,2.15,1.11a20.35,20.35,0,0,1,2.2,1.2s0,.13-.05.1a19.39,19.39,0,0,1-1.92-.86l-2.16-1c-.68-.3-1.34-.64-2-.93-.24-.1-.72-.36-1-.29s-.44.77-.5,1a3.55,3.55,0,0,0,.13,2,10.49,10.49,0,0,1,.39,2.07,5.45,5.45,0,0,1-.16,2,7,7,0,0,1-.9,1.63C265.69,137.51,265.57,137.43,265.62,137.37Z" style="fill:#263238;transform-origin:269.759px 132.876px" id="el1gilneuip73i" class="animable"/><path d="M292.15,134.86s-10.47-9.55-12.65-11.44c-4.37-3.8-22.79-11.33-25.36-11.6s-3.49,5,9,10.46c6.59,2.88,7.76,6.65,7.63,8.74s-2.12,6-5.63,5.9-5.8-5.23-9-5.8-1.09,5.35,1.19,8.78a21.56,21.56,0,0,0,9.46,7.38c3,1.14,12.46,5.2,12.46,5.2Z" style="fill:#f7a9a0;transform-origin:272.351px 132.145px" id="elqf20toh3qy9" class="animable"/><path d="M260.78,134.45c1.32,1,2.83,2.35,4.57,2.42s3-1.11,3.81-2.57a6.7,6.7,0,0,0,.92-4.87,8.17,8.17,0,0,0-2.41-3.94,20,20,0,0,0-4.76-3.18c-.08,0,0-.15.07-.11,1.62.72,6.65,2.78,7.66,7.23a6.87,6.87,0,0,1-1,5c-.78,1.4-1.92,2.75-3.62,2.89-2.08.17-3.87-1.52-5.36-2.79C260.61,134.44,260.71,134.39,260.78,134.45Z" style="fill:#263238;transform-origin:265.701px 129.763px" id="elep6iosdqa6q" class="animable"/><path d="M326.41,161.16l-19.9-18.83s5.33-7.78,12.76-17.1c7.2-9,11.75-8.68,11.56,7.39A101.75,101.75,0,0,1,326.41,161.16Z" style="fill:#ff501a;transform-origin:318.673px 140.229px" id="elzj9jdw8ifsc" class="animable"/><path d="M309.26,139.41c1.63,1.23,3.09,2.71,4.62,4.07s2.91,2.6,4.32,3.94q4.4,4.19,8.61,8.54c.05,0,0,.14-.09.1q-4.49-4-8.87-8.08c-1.45-1.36-2.87-2.75-4.29-4.15s-3-2.78-4.38-4.32A.06.06,0,0,1,309.26,139.41Z" style="fill:#263238;transform-origin:317.993px 147.732px" id="el0p5k59msfppg" class="animable"/><g id="elw7fie9350z8"><path d="M330.83,132.62a101.75,101.75,0,0,1-4.42,28.54L306.8,142.61l20.7-23.23C329.72,120.07,330.93,124.17,330.83,132.62Z" style="opacity:.1;transform-origin:318.818px 140.27px" id="ellhwr0tz6q1" class="animable"/></g><path d="M309.9,182.18l59.86,1S354,134.41,341.55,121.34c-5.67-6-11.15-5-15.76-1.09-1.15,1-15.37,19.36-16.53,25.74-1,5.63,3.6,11.83,3.6,11.83Z" style="fill:#ff501a;transform-origin:339.439px 150.129px" id="elrgqphyzfash" class="animable"/><g id="el1myzfpusvst"><path d="M339.47,119.46H326.8a13.22,13.22,0,0,1,1.63-1h9.48A12.93,12.93,0,0,1,339.47,119.46Zm3.14,3.07H323.87c-.26.32-.53.67-.82,1h20.4Q343,123,342.61,122.53Zm3,4.12h-24.9c-.26.34-.52.7-.78,1.06h26.36C346.09,127.35,345.86,127,345.63,126.65Zm2.52,4.13h-30.4l-.73,1.05h31.72Zm2.24,4.12H315c-.23.35-.46.7-.68,1h36.65Zm2.06,4.13H312.39c-.21.36-.41.71-.59,1.05H353Q352.71,139.54,352.45,139Zm1.93,4.12H310.23c-.16.37-.31.72-.43,1h45.06Zm1.85,4.13h-47.1a7.36,7.36,0,0,0,0,1.05h47.55ZM358,151.4H309.69c.1.36.22.71.34,1h48.39Zm1.69,4.12H311.43c.21.4.42.75.61,1.06h48Zm1.63,4.13H312.64l-.13,1h49.2C361.58,160.35,361.44,160,361.3,159.65Zm1.58,4.12H312.14l-.13,1h51.27C363.16,164.48,363,164.12,362.88,163.77Zm1.55,4.13H311.64l-.13,1h53.31Q364.63,168.44,364.43,167.9Zm1.49,4.12H311.13l-.12,1H366.3C366.18,172.73,366.06,172.38,365.92,172Zm1.47,4.13H310.63l-.12,1h57.24Q367.57,176.69,367.39,176.15Zm1.41,4.12H310.13l-.13,1h59.15C369.05,181,368.93,180.66,368.8,180.27Z" style="fill:#030402;opacity:.1;transform-origin:339.121px 149.865px" id="elwiarse42y9" class="animable"/></g><path d="M321.51,155.33a45.94,45.94,0,0,1,7.88,1.22c1.29.35,2.56.76,3.83,1.2.63.22,1.26.42,1.9.61a7.2,7.2,0,0,0,2,.38c.06,0,.07.11,0,.11a11.43,11.43,0,0,1-1.94,0,12,12,0,0,1-1.87-.34c-1.31-.33-2.6-.74-3.91-1.09-2.64-.7-5.28-1.4-7.95-1.86C321.37,155.57,321.39,155.32,321.51,155.33Z" style="fill:#263238;transform-origin:329.285px 157.11px" id="ells0doaf9kn9" class="animable"/><path d="M315.15,158.44a47.25,47.25,0,0,1,6.5-.66,29.77,29.77,0,0,1,3.27.1c.52,0,1,.08,1.56.14s1.14.22,1.71.28c.06,0,.06.11,0,.11-.54,0-1.08.05-1.62.05l-1.63,0c-1.09,0-2.18.05-3.26.05-2.18,0-4.35,0-6.52.13C315,158.66,315,158.46,315.15,158.44Z" style="fill:#263238;transform-origin:321.637px 158.206px" id="elk21wvc4h32o" class="animable"/><path d="M334.79,119c0,1.08-3.67,8.76-8.45,9.46-1.56.22-3.16-8.22-3.16-8.22l-.26-.59-3.64-8.34,9-8.56,1.31-1.16s.85,2.35,1.88,5.28c0,.14.09.27.14.42l.18.47.46,1.33c.12.34.23.67.34,1l.35,1.07A57.85,57.85,0,0,1,334.79,119Z" style="fill:#f7a9a0;transform-origin:327.035px 115.027px" id="elneo4hs5xh9" class="animable"/><path d="M331.43,106.86a18.29,18.29,0,0,1-8.51,12.78l-3.64-8.34,9-8.56,1.31-1.16S330.4,103.93,331.43,106.86Z" style="fill:#263238;transform-origin:325.355px 110.61px" id="elii5oh4ae48" class="animable"/><path d="M305.48,100.6c3.13,15.66,12.87,15.56,16.24,14.88,3.07-.62,13.43-3.11,11.93-19s-9.77-19.4-16.85-18.36S302.35,84.94,305.48,100.6Z" style="fill:#f7a9a0;transform-origin:319.269px 96.8272px" id="eluvbruuqwwsa" class="animable"/><path d="M307.15,97.45a9,9,0,0,0,1-.45,1.82,1.82,0,0,0,.94-.66.58.58,0,0,0-.15-.68,1.41,1.41,0,0,0-1.43,0,2.05,2.05,0,0,0-1.11,1A.6.6,0,0,0,307.15,97.45Z" style="fill:#263238;transform-origin:307.75px 96.4735px" id="eliy8ltlo95g" class="animable"/><path d="M317.83,95a10.07,10.07,0,0,1-1.1,0,1.84,1.84,0,0,1-1.13-.2.58.58,0,0,1-.15-.68,1.42,1.42,0,0,1,1.29-.62,2,2,0,0,1,1.42.43A.61.61,0,0,1,317.83,95Z" style="fill:#263238;transform-origin:316.886px 94.2556px" id="el0knr9olyf2v" class="animable"/><path d="M316.22,99.41s.09,0,.1.08c.17,1.08.56,2.28,1.59,2.44,0,0,0,.06,0,.06C316.71,102.06,316.21,100.46,316.22,99.41Z" style="fill:#263238;transform-origin:317.065px 100.701px" id="el1zbrrqr2kju" class="animable"/><path d="M317,98.11c1.69-.47,2.5,2.94.94,3.38S315.53,98.51,317,98.11Z" style="fill:#263238;transform-origin:317.507px 99.7973px" id="elcwozbiyw6am" class="animable"/><path d="M317.66,98.13c.35.12.72.39,1.09.34s.65-.49.84-.9c0,0,.06,0,.07,0a1.29,1.29,0,0,1-.6,1.65c-.62.24-1.22-.23-1.54-.85C317.46,98.29,317.52,98.08,317.66,98.13Z" style="fill:#263238;transform-origin:318.629px 98.4269px" id="elmd2yrq9eidb" class="animable"/><path d="M310.28,100.6s-.07.07-.06.11c.3,1.05.46,2.3-.41,2.89,0,0,0,.07,0,.05C311,103.2,310.73,101.54,310.28,100.6Z" style="fill:#263238;transform-origin:310.236px 102.127px" id="elt3ctcvw3l0s" class="animable"/><path d="M309.07,99.73c-1.73.29-1,3.73.58,3.46S310.52,99.49,309.07,99.73Z" style="fill:#263238;transform-origin:309.309px 101.462px" id="elqu3fr7vkvxf" class="animable"/><path d="M308.4,100.1c-.24.24-.44.63-.76.72s-.72-.21-1-.52c0,0-.05,0,0,0,.11.66.47,1.3,1.13,1.29s.91-.65.93-1.34C308.62,100.17,308.49,100,308.4,100.1Z" style="fill:#263238;transform-origin:307.659px 100.83px" id="el092i59l135f8" class="animable"/><path d="M318.42,108.07c-.18.31-.34.72-.71.86a2.84,2.84,0,0,1-1.2.07,0,0,0,0,0,0,.06,1.48,1.48,0,0,0,1.49.19,1.17,1.17,0,0,0,.55-1.16A.06.06,0,0,0,318.42,108.07Z" style="fill:#263238;transform-origin:317.536px 108.693px" id="elfgtxwgbi0k8" class="animable"/><path d="M313.11,105.24s.14,1.63.31,2.38c0,.07.21.06.46,0,0,0,0,0,0,0a3.67,3.67,0,0,0,3.15-2.11.08.08,0,0,0-.13-.08,5.49,5.49,0,0,1-3,1.66c-.1-.19-.14-2.8-.26-2.79a6.72,6.72,0,0,0-1.61.77c-.4-3.39-.24-6.82-.68-10.2a.11.11,0,0,0-.21,0,55.53,55.53,0,0,0,.27,11C311.43,106.35,312.84,105.44,313.11,105.24Z" style="fill:#263238;transform-origin:314.009px 101.231px" id="elxepjqi2mh9" class="animable"/><path d="M313.91,107.26a4.36,4.36,0,0,0,2,1.09,2,2,0,0,0,1.21-.11c.84-.36.74-1.15.47-1.81a4.66,4.66,0,0,0-.54-1A5.81,5.81,0,0,1,313.91,107.26Z" style="fill:#263238;transform-origin:315.847px 106.914px" id="el4r8sn074vzn" class="animable"/><path d="M315.87,108.35a2,2,0,0,0,1.21-.11c.84-.36.74-1.15.47-1.81A2.08,2.08,0,0,0,315.87,108.35Z" style="fill:#ff9bbc;transform-origin:316.807px 107.414px" id="elamsw251iwxp" class="animable"/><path d="M332.73,97.91c-1.73.18-7-3.81-8.44-12.07,0,0,1.84,7.33,2.58,8.32s-2.93-2.24-4.22-8.89a27.39,27.39,0,0,1-6.27,4.67c-3,1.4-4.94,1.68-5.21,1.49s4.14-2.41,5.16-4.06c0,0-7.75,5.26-11.57,6.19-.44.1-1-8.68,4.35-13.56s14-2.52,17-.48c0,0,3.06-.06,7,3.84S334.6,97.72,332.73,97.91Z" style="fill:#263238;transform-origin:319.856px 87.5175px" id="elwu7nryxxiyg" class="animable"/><path d="M334.84,102.24a3.91,3.91,0,0,1-.66.39,2.72,2.72,0,0,1-.72.23,2.18,2.18,0,0,1-1,0,2.39,2.39,0,0,1-.71-.28,3.15,3.15,0,0,1-.84-.69l-.34-4.34s1.95-5.77,4.47-5.2S337.11,100.55,334.84,102.24Z" style="fill:#f7a9a0;transform-origin:333.657px 97.6143px" id="el30057rmdb5d" class="animable"/><path d="M334.88,94.51s.07,0,0,.06c-1.58,1.25-2,3.18-2.19,5.09a1.48,1.48,0,0,1,2-1c.06,0,0,.1,0,.1a1.67,1.67,0,0,0-1.59,1.07,8.72,8.72,0,0,0-.43,1.67c0,.18-.35.18-.34,0v0C331.66,99.16,332.5,95.45,334.88,94.51Z" style="fill:#263238;transform-origin:333.509px 98.0725px" id="elskqddd4hkt" class="animable"/><path d="M334.44,101.66a.74.74,0,1,1-.8-.68A.75.75,0,0,1,334.44,101.66Z" style="fill:#fff;transform-origin:333.702px 101.718px" id="el55p48haim18" class="animable"/><path d="M335.58,100.16a.52.52,0,0,1-.47.56.52.52,0,1,1-.09-1A.52.52,0,0,1,335.58,100.16Z" style="fill:#fff;transform-origin:334.996px 100.232px" id="eloxycfsw61o" class="animable"/><path d="M343.44,135c-2.79,16.38-12.83,48.14-21.79,51-10.38,3.34-48.46-8.77-55.53-13.94-2.81-2.06,12.22-20.8,15.75-19.6,13.6,4.6,28.42,8.11,29.48,7.56,3.12-1.59,13.09-19.43,20.78-29.94C341.79,116.89,344.69,127.65,343.44,135Z" style="fill:#f7a9a0;transform-origin:304.743px 155.215px" id="el5sbx9rh9two" class="animable"/><path d="M267.05,172.57c-1.6-.57-12.63-8.58-15.88-12.34a47.9,47.9,0,0,1-8.48-13.14c-3.27-7.62-4.81-13.2-4-15.7.91-2.9,1.17-3.37,8.8,9.27,4.31,7.16,8.43,8,12,7.9a54.86,54.86,0,0,1,25.34,5.66S273.21,174.76,267.05,172.57Z" style="fill:#f7a9a0;transform-origin:261.654px 151.214px" id="elskcpmyxhys9" class="animable"/><path d="M247.38,116.53l22,22.87a1,1,0,0,1-.24,1.74L255.91,147a2.34,2.34,0,0,1-2.44-.55l-22-22.87a1,1,0,0,1,.24-1.74L244.93,116A2.34,2.34,0,0,1,247.38,116.53Z" style="fill:#37474f;transform-origin:250.425px 131.496px" id="el1vq9l7skd3" class="animable"/><path d="M245.78,115.6l-13.25,5.88a1,1,0,0,0-.24,1.74l22,22.87a2.34,2.34,0,0,0,2.44.55L270,140.76a1,1,0,0,0,.24-1.74l-22-22.87A2.34,2.34,0,0,0,245.78,115.6Zm22.94,23.09c.58.6.51,1.32-.15,1.62l-11.85,5.25a2.16,2.16,0,0,1-2.25-.55L234,123.71c-1.18-1.22-.7-1.52,0-1.82l2.37-1a.54.54,0,0,1,.53.18l.07.07a.66.66,0,0,0,.93.14l5.49-2.43c.3-.14.55-.25.18-.63l-.07-.07c-.15-.17-.17-.35,0-.41l2.38-1c.66-.3,1.36-.37,2.44.75Z" style="fill:#263238;transform-origin:251.265px 131.117px" id="elp87fn51doc" class="animable"/><path d="M240.86,119.2l-1.5.67a.16.16,0,0,1-.16,0h0a.07.07,0,0,1,0-.12l1.5-.66a.16.16,0,0,1,.17,0h0A.06.06,0,0,1,240.86,119.2Z" style="fill:#fff;transform-origin:240.034px 119.478px" id="elm7kkl1cdp8" class="animable"/><line id="elxgodnvxp67a" x1="253.17" x2="253.12" y1="143.66" y2="143.68" style="fill:none;transform-origin:253.145px 143.67px" class="animable"/><path d="M248.22,117.39l20.5,21.3c.58.6.51,1.32-.15,1.62l-11.85,5.25a2.16,2.16,0,0,1-2.25-.55L234,123.71c-1.18-1.22-.7-1.52,0-1.82l2.37-1a.54.54,0,0,1,.53.18l.07.07a.66.66,0,0,0,.93.14l5.49-2.43c.3-.14.55-.25.18-.63l-.06-.07c-.16-.17-.18-.35,0-.41l2.38-1C246.44,116.34,247.14,116.27,248.22,117.39Z" style="fill:#fff;transform-origin:251.199px 131.074px" id="ele85sgfr9mb" class="animable"/><path d="M248.22,117.39l1.53,1.59-14.26,6.32L234,123.71c-1.18-1.22-.7-1.52,0-1.82l2.38-1a.54.54,0,0,1,.53.18l.07.07a.66.66,0,0,0,.93.14l5.49-2.43c.3-.14.55-.25.18-.63l-.06-.07c-.16-.17-.18-.35,0-.41l2.38-1C246.44,116.34,247.13,116.27,248.22,117.39Z" style="fill:#ff501a;transform-origin:241.517px 120.887px" id="elia4ymkwyco" class="animable"/><polygon points="236.19 123.89 235.45 123.74 235.55 123.22 235.67 123.25 235.59 123.68 236.2 123.8 236.19 123.89" style="fill:#fff;transform-origin:235.825px 123.555px" id="el0eap2tbqr63b" class="animable"/><path d="M247.53,118.19s0,.08,0,.11a.15.15,0,0,1-.15,0s0-.08,0-.1A.14.14,0,0,1,247.53,118.19Z" style="fill:#fff;transform-origin:247.455px 118.246px" id="elzq8e80i2bro" class="animable"/><path d="M247.77,118.44a.06.06,0,0,1,0,.1.14.14,0,0,1-.15,0,.06.06,0,0,1,0-.11A.15.15,0,0,1,247.77,118.44Z" style="fill:#fff;transform-origin:247.69px 118.488px" id="el7h81370wrvj" class="animable"/><path d="M248,118.68a.06.06,0,0,1,0,.11.16.16,0,0,1-.15,0,.06.06,0,0,1,0-.11A.14.14,0,0,1,248,118.68Z" style="fill:#fff;transform-origin:247.925px 118.733px" id="elfy2f2qcxa39" class="animable"/><g id="freepik--u5Zjqx--inject-82" class="animable" style="transform-origin:236.11px 121.63px"><path d="M236.35,121.5v0a.4.4,0,0,0-.29,0,.2.2,0,0,0-.15.17h-.06v0l0-.06s0,0,.06-.07l0,0,0,0h0l.1,0h.2Z" style="fill:#fff;transform-origin:236.1px 121.571px" id="elpbm8iwpewt" class="animable"/><path d="M236,121.77H236a.17.17,0,0,1,.08-.13.4.4,0,0,1,.29,0v0a.34.34,0,0,0-.2,0A.17.17,0,0,0,236,121.77Z" style="fill:#fff;transform-origin:236.185px 121.691px" id="elqejd4kwh11" class="animable"/><path d="M236.32,121.68v0a.17.17,0,0,0-.1,0s0,0-.05.06l-.06,0C236.11,121.71,236.21,121.66,236.32,121.68Z" style="fill:#fff;transform-origin:236.215px 121.706px" id="elnxv5qqw17pf" class="animable"/><path d="M236.3,121.78a0,0,0,0,1,0,0,.07.07,0,0,1-.06,0s0,0,0,0A0,0,0,0,1,236.3,121.78Z" style="fill:#fff;transform-origin:236.27px 121.783px" id="elw54sem3v9s" class="animable"/></g><path d="M234.17,122.55a.07.07,0,0,1,0-.12.16.16,0,0,1,.17,0,.07.07,0,0,1,0,.12A.18.18,0,0,1,234.17,122.55Z" style="fill:#fff;transform-origin:234.255px 122.488px" id="elaihjg5vuap" class="animable"/><path d="M234.47,122.42c-.05,0,0-.1,0-.12a.17.17,0,0,1,.18,0,.08.08,0,0,1,0,.13A.18.18,0,0,1,234.47,122.42Z" style="fill:#fff;transform-origin:234.566px 122.362px" id="elqske5azm9bm" class="animable"/><path d="M234.76,122.29a.08.08,0,0,1,0-.13.18.18,0,0,1,.17,0c.05,0,0,.1,0,.12A.17.17,0,0,1,234.76,122.29Z" style="fill:#fff;transform-origin:234.839px 122.223px" id="elp8iq2cmww4" class="animable"/><path d="M235.06,122.15a.07.07,0,0,1,0-.12.18.18,0,0,1,.17,0,.07.07,0,0,1,0,.12A.16.16,0,0,1,235.06,122.15Z" style="fill:#fff;transform-origin:235.145px 122.092px" id="elxdrsu8s9f6" class="animable"/><path d="M235.36,122a.07.07,0,0,1,0-.12.16.16,0,0,1,.17,0,.07.07,0,0,1,0,.12A.16.16,0,0,1,235.36,122Z" style="fill:#fff;transform-origin:235.445px 121.94px" id="ellputtcavc3" class="animable"/><polygon points="245.77 117.9 245.14 117.25 246.36 116.72 246.98 117.36 245.77 117.9" style="fill:#fff;transform-origin:246.06px 117.31px" id="el64w1jxmwood" class="animable"/><polygon points="246.14 117.13 245.65 117.35 245.84 117.55 246.33 117.33 246.14 117.13" style="fill:#fff;transform-origin:245.99px 117.34px" id="elcfnpjd3iz5w" class="animable"/><polygon points="246.59 117.19 246.53 117.22 246.37 117.06 246.44 117.03 246.59 117.19" style="fill:#fff;transform-origin:246.48px 117.125px" id="elmtopg1usn7" class="animable"/><polygon points="256.43 143.84 256.32 143.88 256.72 144.3 256.52 144.39 256.31 144.18 255.96 144.34 256.16 144.55 255.96 144.64 255.56 144.22 255.45 144.27 255.53 143.63 256.43 143.84" style="fill:#ebebeb;transform-origin:256.085px 144.135px" id="elvd1re3vhkp" class="animable"/><polygon points="267.06 138.72 265.88 139.24 265.74 139.1 266.92 138.57 267.06 138.72" style="fill:#ebebeb;transform-origin:266.4px 138.905px" id="elmbblm7l4fs8" class="animable"/><polygon points="267.4 139.07 266.21 139.59 266.08 139.45 267.26 138.93 267.4 139.07" style="fill:#ebebeb;transform-origin:266.74px 139.26px" id="elrrs7bd0ld38" class="animable"/><polygon points="267.73 139.42 266.55 139.94 266.42 139.8 267.6 139.28 267.73 139.42" style="fill:#ebebeb;transform-origin:267.075px 139.61px" id="elahy4o5ohujv" class="animable"/><polygon points="261.67 141.43 261.62 141.88 261 141.72 261.01 141.65 261.52 141.78 261.56 141.41 261.67 141.43" style="fill:#ebebeb;transform-origin:261.335px 141.645px" id="elkc11uomguhm" class="animable"/><path d="M261.57,142.72a1.47,1.47,0,0,1-1.07-.45,1,1,0,0,1-.29-.87.93.93,0,0,1,.55-.66,1.5,1.5,0,0,1,1.6.34,1,1,0,0,1,.28.87.91.91,0,0,1-.55.66A1.31,1.31,0,0,1,261.57,142.72Zm-.27-1.09a.49.49,0,0,0,.27.08A.65.65,0,0,0,261.3,141.63Z" style="fill:#ebebeb;transform-origin:261.426px 141.68px" id="elci83t4nll2r" class="animable"/><path d="M240.37,121.72a.28.28,0,0,1,.08-.49.63.63,0,0,1,.31,0,.11.11,0,0,1,.08.07s0,0-.08,0a.36.36,0,0,0-.21,0,.19.19,0,0,0-.13.15.2.2,0,0,0,.07.18.48.48,0,0,0,.22.12.42.42,0,0,0,.25,0,.18.18,0,0,0,.12-.12s.06,0,.1,0,.06,0,0,.08a.28.28,0,0,1-.17.17A.66.66,0,0,1,240.37,121.72Z" style="fill:#fff;transform-origin:240.738px 121.558px" id="elxmxwhy76r8i" class="animable"/><path d="M241.47,121.61l-.5-.52a0,0,0,0,1,0-.07.09.09,0,0,1,.11,0l.2.21.27-.12-.2-.21s0-.06,0-.07a.08.08,0,0,1,.1,0l.5.52s0,.06,0,.07a.08.08,0,0,1-.1,0l-.21-.21-.27.12.2.21s0,.06,0,.07A.08.08,0,0,1,241.47,121.61Z" style="fill:#fff;transform-origin:241.46px 121.22px" id="el3wsw5dtcrt7" class="animable"/><path d="M242.42,121.05l-.25.11.06.14s0,0,0,0,0,0,0,0a.09.09,0,0,1-.09,0l-.27-.62a0,0,0,0,1,0,0,.14.14,0,0,1,.09,0l.73.42s.05,0,0,.08h0a.08.08,0,0,1-.08,0Zm-.13-.08-.27-.15.1.23Z" style="fill:#fff;transform-origin:242.291px 120.992px" id="elce6jj4sne3u" class="animable"/><path d="M242.71,120.39l-.16.07.45.47a.05.05,0,0,1,0,.08.12.12,0,0,1-.11,0l-.45-.46-.16.07a.11.11,0,0,1-.11,0s0,0,0-.07l.45-.2a.1.1,0,0,1,.1,0A0,0,0,0,1,242.71,120.39Z" style="fill:#fff;transform-origin:242.595px 120.68px" id="el18e4cj7xpg4" class="animable"/><polygon points="245.61 133.5 255.81 128.98 253.22 126.3 243.03 130.82 243.03 130.82 245.61 133.5 245.61 133.5" style="fill:#455a64;transform-origin:249.42px 129.9px" id="elu0m5vcppqjg" class="animable"/><polygon points="256.75 128.56 255.81 128.98 255.01 128.16 256.75 128.56" style="fill:#455a64;transform-origin:255.88px 128.57px" id="elzng2h3sc0c" class="animable"/><polygon points="253.13 127.07 244.1 131.07 244.06 131.02 253.08 127.02 253.13 127.07" style="fill:#fff;transform-origin:248.595px 129.045px" id="elyza4w1vpenc" class="animable"/><polygon points="251.52 128.18 244.37 131.35 244.32 131.3 251.47 128.12 251.52 128.18" style="fill:#fff;transform-origin:247.92px 129.735px" id="elqn89scov4c" class="animable"/><polygon points="253.19 128.22 244.9 131.9 244.85 131.85 253.14 128.17 253.19 128.22" style="fill:#fff;transform-origin:249.02px 130.035px" id="el6ndtf9j5mbc" class="animable"/><polygon points="254.19 128.17 245.17 132.17 245.12 132.12 254.14 128.12 254.19 128.17" style="fill:#fff;transform-origin:249.655px 130.145px" id="el5p8kciz7u4l" class="animable"/><polygon points="254.46 128.45 245.43 132.45 245.38 132.4 254.41 128.4 254.46 128.45" style="fill:#fff;transform-origin:249.92px 130.425px" id="el4w9wamcbpbq" class="animable"/><polygon points="252.22 129.83 245.7 132.72 245.65 132.67 252.17 129.78 252.22 129.83" style="fill:#fff;transform-origin:248.935px 131.25px" id="elz5iktx4kisj" class="animable"/><polygon points="251.71 139.84 261.91 135.32 259.32 132.63 249.13 137.16 249.13 137.16 251.71 139.84 251.71 139.84" style="fill:#455a64;transform-origin:255.52px 136.235px" id="elra2mceoh8z" class="animable"/><polygon points="262.85 134.9 261.91 135.32 261.12 134.5 262.85 134.9" style="fill:#455a64;transform-origin:261.985px 134.91px" id="elsuoov94783" class="animable"/><polygon points="259.24 133.41 250.21 137.41 250.16 137.36 259.19 133.36 259.24 133.41" style="fill:#fff;transform-origin:254.7px 135.385px" id="elsvcnsuaf8r" class="animable"/><polygon points="257.63 134.51 250.47 137.69 250.43 137.64 257.58 134.46 257.63 134.51" style="fill:#fff;transform-origin:254.03px 136.075px" id="el77iks5cp4me" class="animable"/><polygon points="259.29 134.56 251 138.24 250.96 138.19 259.24 134.51 259.29 134.56" style="fill:#fff;transform-origin:255.125px 136.375px" id="elpqoyfidtl7g" class="animable"/><polygon points="260.3 134.51 251.27 138.51 251.22 138.46 260.25 134.46 260.3 134.51" style="fill:#fff;transform-origin:255.76px 136.485px" id="elvsq3r99nwl" class="animable"/><polygon points="260.56 134.79 251.53 138.79 251.49 138.74 260.51 134.74 260.56 134.79" style="fill:#fff;transform-origin:256.025px 136.765px" id="ele5y11g5jnp7" class="animable"/><polygon points="258.33 136.17 251.8 139.06 251.75 139.01 258.28 136.12 258.33 136.17" style="fill:#fff;transform-origin:255.04px 137.59px" id="elh7u20zzh50f" class="animable"/><polygon points="251.6 123.21 241.4 127.73 239.22 125.47 249.42 120.95 251.6 123.21" style="fill:#ff501a;transform-origin:245.41px 124.34px" id="el0jajf8vsounn" class="animable"/><polygon points="240.46 128.15 241.4 127.73 240.61 126.91 240.46 128.15" style="fill:#ff501a;transform-origin:240.93px 127.53px" id="elhkntl0ketub" class="animable"/><polygon points="247.79 122.34 240.27 125.67 240.22 125.62 247.74 122.29 247.79 122.34" style="fill:#fff;transform-origin:244.005px 123.98px" id="els5i8tbsj8yo" class="animable"/><polygon points="249.56 121.95 240.54 125.95 240.49 125.9 249.51 121.89 249.56 121.95" style="fill:#fff;transform-origin:245.025px 123.92px" id="el4rpm419ufe" class="animable"/><polygon points="249.83 122.22 240.8 126.22 240.75 126.17 249.78 122.17 249.83 122.22" style="fill:#fff;transform-origin:245.29px 124.195px" id="elpc2ua9fcb8s" class="animable"/><polygon points="249.38 122.81 241.07 126.5 241.02 126.45 249.33 122.76 249.38 122.81" style="fill:#fff;transform-origin:245.2px 124.63px" id="el6ouk78ucil" class="animable"/><polygon points="250.36 122.77 241.33 126.78 241.28 126.72 250.31 122.72 250.36 122.77" style="fill:#fff;transform-origin:245.82px 124.75px" id="el52z7m3pye2c" class="animable"/><polygon points="248.27 124.09 241.6 127.05 241.55 127 248.22 124.04 248.27 124.09" style="fill:#fff;transform-origin:244.91px 125.545px" id="elhbwpo86n5rl" class="animable"/><polygon points="253.57 125.26 243.37 129.78 241.76 128.1 251.95 123.58 253.57 125.26" style="fill:#ff501a;transform-origin:247.665px 126.68px" id="elysp0mq79r6c" class="animable"/><polygon points="242.43 130.2 243.37 129.78 242.58 128.96 242.43 130.2" style="fill:#ff501a;transform-origin:242.9px 129.58px" id="elehpvsmmmkfq" class="animable"/><polygon points="251.81 124.31 242.81 128.31 242.75 128.25 251.77 124.26 251.81 124.31" style="fill:#fff;transform-origin:247.28px 126.285px" id="eluqt3iez3t5" class="animable"/><polygon points="250.49 125.29 243.07 128.58 243.02 128.53 250.44 125.24 250.49 125.29" style="fill:#fff;transform-origin:246.755px 126.91px" id="ellr3cas50yo" class="animable"/><polygon points="251.5 125.24 243.34 128.86 243.29 128.81 251.45 125.19 251.5 125.24" style="fill:#fff;transform-origin:247.395px 127.025px" id="elb6ks2jm2urq" class="animable"/><polygon points="249.9 126.34 243.6 129.13 243.55 129.08 249.85 126.29 249.9 126.34" style="fill:#fff;transform-origin:246.725px 127.71px" id="el09xhvqzrly1" class="animable"/><polygon points="259.66 131.59 249.47 136.11 247.19 133.74 257.38 129.22 259.66 131.59" style="fill:#dbdbdb;transform-origin:253.425px 132.665px" id="elp9rtu7rhjsk" class="animable"/><polygon points="248.52 136.53 249.47 136.11 248.67 135.28 248.52 136.53" style="fill:#dbdbdb;transform-origin:248.995px 135.905px" id="el2872rurc3ob" class="animable"/><polygon points="257.55 130.98 249.02 134.76 248.97 134.71 257.5 130.93 257.55 130.98" style="fill:#fff;transform-origin:253.26px 132.845px" id="elydbmopqxba" class="animable"/><polygon points="257.12 131.56 249.29 135.04 249.24 134.99 257.07 131.51 257.12 131.56" style="fill:#fff;transform-origin:253.18px 133.275px" id="elk2ykgodm6l" class="animable"/><polygon points="256.52 130.65 248.49 134.21 248.44 134.16 256.48 130.6 256.52 130.65" style="fill:#fff;transform-origin:252.48px 132.405px" id="elmbpbdh1j7sa" class="animable"/><polygon points="257.14 129.98 248.23 133.94 248.18 133.88 257.09 129.93 257.14 129.98" style="fill:#fff;transform-origin:252.66px 131.935px" id="elma6kon16cw" class="animable"/><polygon points="257.66 131.72 249.55 135.31 249.5 135.26 257.61 131.67 257.66 131.72" style="fill:#fff;transform-origin:253.58px 133.49px" id="el1uwlt3v8fbl" class="animable"/><polygon points="265.42 137.57 255.23 142.09 253.33 140.12 263.53 135.6 265.42 137.57" style="fill:#ff501a;transform-origin:259.375px 138.845px" id="elqa9wfgs66f" class="animable"/><polygon points="254.28 142.51 255.23 142.09 254.44 141.27 254.28 142.51" style="fill:#ff501a;transform-origin:254.755px 141.89px" id="el1ex0z4k1cui" class="animable"/><polygon points="263.39 136.31 254.36 140.31 254.31 140.26 263.34 136.25 263.39 136.31" style="fill:#fff;transform-origin:258.85px 138.28px" id="ellxtcxieq5o" class="animable"/><polygon points="263.65 136.58 254.63 140.58 254.58 140.53 263.6 136.53 263.65 136.58" style="fill:#fff;transform-origin:259.115px 138.555px" id="el3v053h39dav" class="animable"/><polygon points="263.2 137.17 254.89 140.86 254.84 140.81 263.15 137.12 263.2 137.17" style="fill:#fff;transform-origin:259.02px 138.99px" id="el3qfy1j1e8q" class="animable"/><polygon points="264.18 137.13 255.16 141.13 255.11 141.08 264.13 137.08 264.18 137.13" style="fill:#fff;transform-origin:259.645px 139.105px" id="elovq81su5br" class="animable"/><polygon points="262.09 138.45 255.42 141.41 255.37 141.36 262.04 138.4 262.09 138.45" style="fill:#fff;transform-origin:258.73px 139.905px" id="el6m28aattgci" class="animable"/><path d="M257.68,148.5c3.69.05-8.29-7.42-8.47-11.62s3.9-2.87,7.13-.5c11.18,8.22,19.62,7.81,25.29,15.67S257.68,148.5,257.68,148.5Z" style="fill:#f7a9a0;transform-origin:265.778px 144.485px" id="elwygxe0c4vj" class="animable"/><path d="M266.42,142.35c1.54.51,3.07,1.08,4.58,1.69a39.08,39.08,0,0,1,4.45,2.08,18.17,18.17,0,0,1,3.92,3c1.17,1.15,2.27,2.36,3.34,3.62l-.23-.15,7.62,2.16c2.53.73,5.07,1.45,7.62,2.14s5.08,1.42,7.64,2.05c1.28.3,2.56.62,3.85.85a4.72,4.72,0,0,0,1.9.08,6.13,6.13,0,0,0,1.66-1,5.59,5.59,0,0,1-1.59,1.21,4.61,4.61,0,0,1-2,.08,39.52,39.52,0,0,1-3.92-.64c-2.6-.53-5.18-1.1-7.74-1.76s-5.12-1.34-7.67-2-5.07-1.47-7.61-2.22l-.13,0-.09-.11c-1-1.25-2.1-2.46-3.22-3.61a17.16,17.16,0,0,0-3.65-3.07c-1.37-.85-2.83-1.56-4.28-2.28S267.9,143,266.42,142.35Z" style="fill:#263238;transform-origin:289.595px 151.292px" id="elujv7q8n3o3" class="animable"/><path d="M340.68,164.72l-19.91-18.83a175.78,175.78,0,0,1,11.55-17.62c7.1-9.57,13-8.15,12.78,7.91A102.09,102.09,0,0,1,340.68,164.72Z" style="fill:#ff501a;transform-origin:332.938px 143.506px" id="elgrrtel0b8x6" class="animable"/><path d="M323.52,143c1.64,1.23,3.1,2.71,4.62,4.07s2.91,2.59,4.32,3.94q4.4,4.19,8.61,8.54c.05.05,0,.14-.08.09-3-2.65-5.95-5.34-8.88-8.07-1.45-1.36-2.87-2.75-4.29-4.15s-3-2.79-4.38-4.33C323.39,143,323.46,142.94,323.52,143Z" style="fill:#263238;transform-origin:332.256px 151.315px" id="elxpziyxqkyz7" class="animable"/><path d="M321.88,143.29c.49-.87,1-1.72,1.55-2.57l.33-.52c.44-1.17.89-2.34,1.44-3.45,0,0,.08,0,.07,0-.29.91-.65,1.8-1,2.69a42.81,42.81,0,0,1,2.64-3.75,0,0,0,0,1,.06,0c-1,1.76-2,3.45-3.06,5.17-.49.83-3,4.88-3,4.92a6.71,6.71,0,0,1,.57.63c.08.16,0,.1-.06.06l-1-.71S321.46,144,321.88,143.29Z" style="fill:#263238;transform-origin:323.695px 141.102px" id="elelo4zj5um2t" class="animable"/><path d="M336,160.33c1.64,1.37,3.24,2.78,4.82,4.2l-.43.1c1-3.51,1.75-7.15,2.5-10.76L345,143c-.14,1.85-.32,3.69-.56,5.53s-.51,3.67-.85,5.5-.68,3.65-1.13,5.45a48.79,48.79,0,0,1-1.55,5.36l-.15.39-.29-.28C339,163.41,337.49,161.89,336,160.33Z" style="fill:#263238;transform-origin:340.5px 154.115px" id="eliiulyo5lsti" class="animable"/><path d="M345.5,145.75a7.88,7.88,0,0,1-.53,2.15,6.91,6.91,0,0,1-1.11,1.93,12,12,0,0,1,.64-2.11A10.73,10.73,0,0,1,345.5,145.75Z" style="fill:#263238;transform-origin:344.68px 147.79px" id="el7p8z87dnndt" class="animable"/></g><g id="freepik--character-1--inject-82" class="animable" style="transform-origin:250.026px 350.409px"><path d="M423.56,438.16c-2.58,1-77.48,2.35-80.41.68-.32-.19-.23-3.5-1.33-12-.05-.4-1.76-2-4.43-4.23-10-8.39-33.55-26.09-33.55-26.09L341.21,364l36.22,35.6,9.42,9.25s30.6,16.53,33.63,18.71S426.14,437.17,423.56,438.16Z" style="fill:#ad6359;transform-origin:364.224px 401.814px" id="el97vgwg0ewor" class="animable"/><path d="M423.56,438.16c-2.58,1-77.48,2.35-80.41.68-.31-.19-.22-3.49-1.33-12-.05-.4-1.76-2-4.43-4.23-3.48-2.92-5.14-4.25-10.32-8.29l47.52-17.47,2.85,2.8,9.41,9.26s30.61,16.52,33.63,18.7S426.14,437.17,423.56,438.16Z" style="fill:#ebebeb;transform-origin:375.838px 418.239px" id="elaa1jy8wdulb" class="animable"/><path d="M428.72,439.19c-2.6.91-82.4,1.78-85.27,0-.68-.41-1.3-5.05-1.79-11.4-.06-.79-8.15-7.25-9.25-8.45l48.9-16.47,6.17,5.81s36,16.74,38.93,19S431.32,438.29,428.72,439.19Z" style="fill:#ff501a;transform-origin:381.169px 421.547px" id="el832ii583p1u" class="animable"/><path d="M427.61,436.21c-12.53-.16-68.15.38-80.55,1.17-.1,0-.1.07,0,.08,12.42.43,68-.51,80.56-1C427.88,436.41,427.88,436.22,427.61,436.21Z" style="fill:#263238;transform-origin:387.399px 436.876px" id="elm1156jx3ku" class="animable"/><path d="M391.47,409.22c-4.94-.87-11,0-14.69,3.52-.15.14.05.34.21.29a69.4,69.4,0,0,1,14.47-3.19A.31.31,0,0,0,391.47,409.22Z" style="fill:#263238;transform-origin:384.251px 410.972px" id="el2pofx7uoxc5" class="animable"/><path d="M395.05,411.32c-4.94-.86-11,0-14.69,3.52-.14.14.05.35.21.29A69.4,69.4,0,0,1,395,411.94.31.31,0,0,0,395.05,411.32Z" style="fill:#263238;transform-origin:387.824px 413.076px" id="eljik45jqkmcn" class="animable"/><path d="M398.64,413.43c-4.94-.87-11,0-14.69,3.52-.15.14.05.34.21.29a69.4,69.4,0,0,1,14.47-3.19A.31.31,0,0,0,398.64,413.43Z" style="fill:#263238;transform-origin:391.421px 415.182px" id="elbvbrlh90vxt" class="animable"/><path d="M402.22,415.53c-4.94-.86-11,0-14.69,3.52-.14.14.05.34.21.29a69.4,69.4,0,0,1,14.47-3.19A.31.31,0,0,0,402.22,415.53Z" style="fill:#263238;transform-origin:395.003px 417.284px" id="el695zis3r25d" class="animable"/><path d="M400.44,397.71c-2-2.65-5.56-1.41-7.6.35a26.29,26.29,0,0,0-7.46,11.38.14.14,0,0,0,.12.18c0,.37.36.77.78.61,4.05-1.56,8.58-2.72,12-5.47C400.33,403.15,402.31,400.21,400.44,397.71Zm-8.5,8.9c-2,.81-4,1.53-5.92,2.41a79.11,79.11,0,0,1,4.5-6.55,29.21,29.21,0,0,1,2.58-2.86c1.46-1.35,7.23-4.26,6.43,1.16C399.08,403.76,394.3,405.64,391.94,406.61Z" style="fill:#263238;transform-origin:393.281px 403.223px" id="elp0gldxjjfba" class="animable"/><path d="M372.83,408.3c4.08,1.69,8.76,1.54,13.08,1.91a.61.61,0,0,0,.58-.8.13.13,0,0,0,.07-.2,26.4,26.4,0,0,0-10.33-8.87c-2.45-1.11-6.25-1.31-7.4,1.78C367.73,405,370.44,407.32,372.83,408.3Zm-2.27-3.49c-2.28-5,4.08-3.79,5.85-2.9a29.14,29.14,0,0,1,3.27,2c2.19,1.52,4.13,3.32,6.15,5-2.12-.31-4.24-.44-6.36-.67C376.93,408,371.82,407.56,370.56,404.81Z" style="fill:#263238;transform-origin:377.581px 404.904px" id="el0klru6zp3cfq" class="animable"/><path d="M378,397.61l-46.2,23.94S283.62,378,279.21,377.66s-69.16,43.61-101.76,43.75c-33.76.14-35.47-35.23-35.47-35.23l49.25-11.31c35.51-17.5,72.49-48.93,96.67-46C314.17,332.06,378,397.61,378,397.61Z" style="fill:#263238;transform-origin:259.99px 375.114px" id="elfe8xj27crol" class="animable"/><path d="M366.66,391.52c-7.79,3.85-5.61,2.64-13.37,6.58-3.79,1.92-22.9,11.56-26.14,13.95-.07.05,0,.18.08.15,3.82-1.28,22.71-11.33,26.47-13.32,7.68-4.08,5.43-3,13.08-7.15A.12.12,0,1,0,366.66,391.52Z" style="fill:#37474f;transform-origin:346.981px 401.854px" id="el9zzq8wsg06" class="animable"/><path d="M323.57,410.52c-9-8-38.63-33.9-39.83-34.86a16,16,0,0,0-3.08-2.31,3.26,3.26,0,0,0-2.85.23c-1.37.64-2.71,1.34-4.07,2l-8,3.91c-10.35,5.05-20.65,10.24-31.08,15.12-10,4.7-17.19,9.12-27.66,12.73A157.22,157.22,0,0,1,174.86,415c-1.35.16-2.7.3-4.06.43a.08.08,0,1,0,0,.15,129.08,129.08,0,0,0,31.63-5.88c10.37-3.19,17.42-7.33,27.27-11.87,10.22-4.7,20.29-9.73,30.36-14.73,5.31-2.64,10.62-5.31,15.95-7.92,1.21-.59,2.93-1.88,4.31-1.24a7.85,7.85,0,0,1,1.59,1.17l1.77,1.48c2.29,1.9,38.56,33.14,39.75,34C323.53,410.71,323.65,410.59,323.57,410.52Z" style="fill:#37474f;transform-origin:247.144px 394.355px" id="elfx5s9yi0dvw" class="animable"/><path d="M141.89,386.18s-5.53,31.94,10.44,44.49,133,11,150.74,5.3,18.31-34.39-1.1-41c-18.46-6.31-97-9.38-98.93-10.16-.49-.19,7-4.66,6.93-4.93l-17.87-5.46Z" style="fill:#263238;transform-origin:228.708px 407.329px" id="el6t4xq8jrxcp" class="animable"/><path d="M166.13,385.37c0-.13-.24-.09-.24,0a15.76,15.76,0,0,1-3.69,10.15c-2.72,3.14-6.73,4.89-10.36,6.73-.35.18-.08.72.28.62a32.17,32.17,0,0,0,6.41-2.77,15.59,15.59,0,0,0,4.83-4A13.83,13.83,0,0,0,166.13,385.37Z" style="fill:#37474f;transform-origin:158.991px 394.085px" id="elupz2jzfh4xe" class="animable"/><path d="M201.75,381.42c-.81-1-1.69-2-2.54-3-2-2.38-4-4.77-6.11-7.07-.19-.22-.58.09-.4.33,1.41,1.85,2.91,3.63,4.38,5.43.75.93,1.51,1.85,2.27,2.76a17.67,17.67,0,0,1,2.12,2.69c.54,1-.18,1.9-1.24,2a3.67,3.67,0,0,1-2.55-.94,33.92,33.92,0,0,1-4.33-4.63c-.84-1-1.69-1.89-2.54-2.83s-1.88-1.94-2.79-2.93a.08.08,0,0,0-.12.09c.8,1.09,1.53,2.23,2.32,3.31s1.6,2.17,2.42,3.24,1.58,2,2.4,3a10,10,0,0,0,2.44,2.19c1.52.89,4.16,1.08,5-.88A2.75,2.75,0,0,0,201.75,381.42Z" style="fill:#37474f;transform-origin:195.245px 378.49px" id="el3tywnuvbe81" class="animable"/><path d="M300.64,436.07c-6.11.12-12.22.47-18.33.6s-12.13.17-18.2.11q-18.27-.18-36.51-1.42c-12.28-.85-25.53-2.07-37.72-3.76-5.84-.81-11.76-1.48-17.53-2.72a27.75,27.75,0,0,1-13.82-7.06c-7.9-7.67-11-18.93-12.23-29.7-.17-1.44-.31-2.89-.43-4.34,0-.1-.15-.09-.15,0,.72,11,2.43,22.54,9.38,31.41A27.49,27.49,0,0,0,166.4,428c5.47,2.19,11.53,2.7,17.3,3.49,12.25,1.66,25.54,2.94,37.86,3.9s24.82,1.56,37.25,1.74,24.88,0,37.29-.6c1.52-.08,3-.17,4.54-.3A.07.07,0,0,0,300.64,436.07Z" style="fill:#37474f;transform-origin:223.22px 412.453px" id="elu769uulsqz" class="animable"/><path d="M262.1,389.12c-3.85-.56-7.69-1.12-11.56-1.52s-7.82-.76-11.73-1.09c-7.74-.65-15.5-1.24-23.26-1.61-4.41-.2-8.82-.22-13.23-.17-.15,0-.13.21,0,.22,7.76.7,15.53,1.19,23.3,1.71s15.5,1.19,23.24,1.93c4.39.42,8.78.74,13.18,1.1C262.36,389.72,262.42,389.17,262.1,389.12Z" style="fill:#37474f;transform-origin:232.263px 387.199px" id="ell22tpx0yo9" class="animable"/><path d="M210.88,379.46a60.52,60.52,0,0,0-8.91,4.77,71.57,71.57,0,0,0-8.24,5.77c-.07.06,0,.15.09.12,3-1.4,5.93-3.15,8.81-4.83a82.89,82.89,0,0,0,8.44-5.42C211.26,379.73,211.14,379.36,210.88,379.46Z" style="fill:#37474f;transform-origin:202.432px 384.785px" id="el41mbj530vey" class="animable"/><path d="M246.15,277.38l-11.26,31c-.43.9,0,1.71.88,1.8l16.43,1.67a2.65,2.65,0,0,0,2.45-1.46l11.27-31c.43-.9,0-1.71-.88-1.8l-16.43-1.67A2.67,2.67,0,0,0,246.15,277.38Z" style="fill:#a6a6a6;transform-origin:250.405px 293.885px" id="elpql29iu63dj" class="animable"/><path d="M248.11,277.56l-11.27,31c-.43.9,0,1.71.88,1.8l16.43,1.67a2.67,2.67,0,0,0,2.46-1.46l11.26-31a1.14,1.14,0,0,0-.87-1.8l-16.44-1.67A2.65,2.65,0,0,0,248.11,277.56Z" style="fill:#c7c7c7;transform-origin:252.377px 294.065px" id="elvo0dn70098" class="animable"/><path d="M252.47,279.47a1.41,1.41,0,0,1-1.57,1.22,1.39,1.39,0,0,1-1.22-1.56,1.41,1.41,0,0,1,2.79.34Z" style="fill:#263238;transform-origin:251.07px 279.352px" id="elyz4f8crdek" class="animable"/><path d="M188.71,322.57c7.1,20.82,25.18,43.65,31.74,46.07,3.87,1.43,10.9,3.18,16.81-.94,12.9-9,26.79-26.2,30-37.26,1.16-3.93-17.39-14.77-20.63-11.83-7.59,6.9-20.83,24.23-22,24-4.38-.83-16.64-16-28-27C186.05,305.42,185.88,314.28,188.71,322.57Z" style="fill:#ad6359;transform-origin:227.233px 340.649px" id="ele9zlt4xjzp" class="animable"/><path d="M270.08,309.77c-1.17-8.37-2.75-10.34,0-17.92,1.82-5-.58-8.27-4.66-4.57-6.68,6.06-7.44,17.17-6.6,21.1Z" style="fill:#ad6359;transform-origin:264.62px 297.73px" id="eln0muack90ad" class="animable"/><path d="M266,333.83s4.89-10.94,4.53-20c-.24-6.26-2.3-19.8-18.75-28.65-3.9-2.1-11-2.32-5.82,3.42,3.64,4.08,7.18,5.57,8.87,8.33,0,0-9,.78-10.95,4.77a82,82,0,0,0-4.35,10.79,17.59,17.59,0,0,0,1.95,1s-1.47,3.9.83,9.81Z" style="fill:#ad6359;transform-origin:255.039px 308.826px" id="ellsazwwng7ac" class="animable"/><path d="M269.3,307.92c-2.25-2.39-7.11-7.36-12.5-10-6-3-18.32-7.12-20.48-2.67-1.58,3.25,3,5.24,3,5.24s-5.46-.63-6.25,2.63c-.71,3,2.92,4.29,2.92,4.29s-3.38.19-3.52,3.17c-.17,3.6,6.94,2.62,9.92,6.41C243.06,317.8,269.3,307.92,269.3,307.92Z" style="fill:#ad6359;transform-origin:250.883px 305.165px" id="elp0lhc1kglf" class="animable"/><path d="M254.71,304.73a26.66,26.66,0,0,0-15.28-4.36c-.14,0-.2.12-.08.14a65.8,65.8,0,0,1,15.33,4.27S254.73,304.75,254.71,304.73Z" style="fill:#263238;transform-origin:247px 302.571px" id="ellx1vinc44rb" class="animable"/><path d="M251.52,310.68c-2.31-1.41-9.4-4-15.51-3.43-.13,0-.19.13-.07.14a70.28,70.28,0,0,1,15.56,3.35S251.55,310.7,251.52,310.68Z" style="fill:#263238;transform-origin:243.702px 308.955px" id="elm01ui872po" class="animable"/><path d="M237.75,325.65l31.63,23.56s-24.67,22.93-32.2,23.9a40,40,0,0,1-19.51-2.81c-4.12-1.82-21.39-26.42-29.47-45.74s2.49-17.75,9.69-10.11,26,26.76,27.1,26.44S237.75,325.65,237.75,325.65Z" style="fill:#a6a6a6;transform-origin:227.336px 341.234px" id="elef0nxu6o3oe" class="animable"/><path d="M260.67,354.2c-11.11-10.57-24.37-20-26.56-21.76-.11-.09-.23.09-.12.17,2.24,1.66,16.24,14.06,26.55,21.78C260.66,354.48,260.78,354.3,260.67,354.2Z" style="fill:#263238;transform-origin:247.33px 343.415px" id="el5qel9tfuvz9" class="animable"/><path d="M213.08,365.86c-6.9-8.29-18.64-26.37-24.88-41.3-5.56-13.3-2.28-16.7,2.65-15l.17.43Z" style="fill:#263238;transform-origin:199.187px 337.507px" id="elgoi5f2aupk4" class="animable"/><path d="M209.52,383.27l-69.05,4c.08-1.41,10.35-42.51,18.12-57.59,10-19.33,14.91-20.79,17.87-21.78,3.78-1.26,10.44-.44,12,.34,1.78.88,7.28,11,9.17,18.39C201.43,341.45,210.46,382.39,209.52,383.27Z" style="fill:#dbdbdb;transform-origin:175.029px 347.259px" id="elyx7j87sdy8q" class="animable"/><path d="M176.55,349.84a9.92,9.92,0,0,0-2.61-.6,9,9,0,0,0,2.36,1.25,10.07,10.07,0,0,0,2.63.6A9.52,9.52,0,0,0,176.55,349.84Zm19-21a9.71,9.71,0,0,0-2.62-.61,8.85,8.85,0,0,0,2.37,1.25,9.61,9.61,0,0,0,2.63.61A9.36,9.36,0,0,0,195.55,328.88Zm-6.88,53.92a9.31,9.31,0,0,0-2.63-.59,9.2,9.2,0,0,0,2.38,1.25,9.9,9.9,0,0,0,2.62.6A9.51,9.51,0,0,0,188.67,382.8ZM156.18,335a3.25,3.25,0,0,0-.18.43,6.74,6.74,0,0,0,1.11.15A7.56,7.56,0,0,0,156.18,335Zm49.22,25.39a11.41,11.41,0,0,0-1.24-.55,9.1,9.1,0,0,0-2.62-.6,9.36,9.36,0,0,0,2.38,1.25,10.89,10.89,0,0,0,1.6.47ZM163.7,382.8a9.32,9.32,0,0,0-2.62-.59,9.14,9.14,0,0,0,2.37,1.25,9.9,9.9,0,0,0,2.62.6A9.18,9.18,0,0,0,163.7,382.8Zm45.12.51.53,0a6.27,6.27,0,0,0,.16-1.07A6.73,6.73,0,0,0,208.82,383.31ZM176.43,372.2a9,9,0,0,0-.6,2.61,10.44,10.44,0,0,0,1.85-5A9.52,9.52,0,0,0,176.43,372.2Zm11.71-30.38a9.52,9.52,0,0,0-.59,2.62,9.52,9.52,0,0,0,1.25-2.38,9.19,9.19,0,0,0,.6-2.61A9.83,9.83,0,0,0,188.14,341.82Zm2.17-25.67a9.31,9.31,0,0,0-.59,2.63A9.86,9.86,0,0,0,191,316.4a9.53,9.53,0,0,0,.59-2.61A9.57,9.57,0,0,0,190.31,316.15Zm6.8,55.8a9.78,9.78,0,0,0-2.28,1.43,10.56,10.56,0,0,0,4.85-2.22A9.36,9.36,0,0,0,197.11,372Zm-33-6.2a9.7,9.7,0,0,0-2.28,1.43,9.55,9.55,0,0,0,2.56-.8,9.05,9.05,0,0,0,2.28-1.42A9.09,9.09,0,0,0,164.12,365.75Zm5.6-29.39a10.12,10.12,0,0,0-2.28,1.43,10.56,10.56,0,0,0,4.85-2.22A9.36,9.36,0,0,0,169.72,336.36Zm32.49,9.54a9.71,9.71,0,0,0-2.16,1.37,9.23,9.23,0,0,0,2.31-.69Zm-53.53,29.21a9.05,9.05,0,0,0-1.42-2.28,9.09,9.09,0,0,0,.79,2.56,9.38,9.38,0,0,0,1.43,2.28A9.55,9.55,0,0,0,148.68,375.11Zm11.72-23.59a9.66,9.66,0,0,0-1.42-2.28,10.44,10.44,0,0,0,2.21,4.84A9.19,9.19,0,0,0,160.4,351.52Zm28.46,8.76a10.29,10.29,0,0,0-1.43-2.27,9.73,9.73,0,0,0,.8,2.57,9.18,9.18,0,0,0,1.42,2.27A9.36,9.36,0,0,0,188.86,360.28Zm-10.13-35.76a9.05,9.05,0,0,0-1.42-2.28,9.09,9.09,0,0,0,.79,2.56,9.66,9.66,0,0,0,1.42,2.28A8.87,8.87,0,0,0,178.73,324.52Z" style="fill:#a6a6a6;transform-origin:178.38px 348.925px" id="elgfnyulo45ca" class="animable"/><path d="M189.76,320.14c-3.93.94-10.7-5-13.38-9.9-.19-.34.31-3.86.72-8.16.23-2.62.43-5.54.42-8.21,0-.55,16.79,4,16.79,4a43.11,43.11,0,0,0-1.58,10.28,6.39,6.39,0,0,0,.12,1.1q0,.08,0,.18C193.22,311.52,193.56,319.22,189.76,320.14Z" style="fill:#ad6359;transform-origin:185.324px 307.031px" id="eleotldfj6o9g" class="animable"/><path d="M178.55,293.93c.8,4.52,3.65,15.44,12.61,15.61a10.22,10.22,0,0,0,1.71-.1.5.5,0,0,0,0-.18,6.39,6.39,0,0,1-.12-1.1,42.45,42.45,0,0,1,1.58-10.28S182.2,294.59,178.55,293.93Z" style="fill:#263238;transform-origin:186.44px 301.737px" id="elmdt9zdt0a8" class="animable"/><path d="M176.73,272.66c-2.41,5.74-1,23.16,2.78,27.4,5.53,6.15,15.47,7.7,20.92.85,5.28-6.65,3.09-29.31-1.26-33.26C192.77,261.84,180.29,264.2,176.73,272.66Z" style="fill:#ad6359;transform-origin:189.532px 284.926px" id="elcjuat0c80gj" class="animable"/><path d="M192.4,284.82s-.09.07-.08.12c.17,1.16.16,2.53-.85,3,0,0,0,.08,0,.07C192.76,287.71,192.74,285.9,192.4,284.82Z" style="fill:#263238;transform-origin:192.033px 286.415px" id="eld6fz12ca47" class="animable"/><path d="M191.22,283.72c-1.9.07-1.63,3.86.13,3.79S192.81,283.66,191.22,283.72Z" style="fill:#263238;transform-origin:191.227px 285.615px" id="el6ttqz07aqvv" class="animable"/><path d="M199,284.38s.1.05.1.1c.05,1.18.3,2.51,1.39,2.83,0,0,0,.07,0,.06C199.14,287.29,198.83,285.5,199,284.38Z" style="fill:#263238;transform-origin:199.724px 285.875px" id="eln8md9po9bu" class="animable"/><path d="M199.93,283.08c1.88-.28,2.3,3.5.56,3.75S198.36,283.32,199.93,283.08Z" style="fill:#263238;transform-origin:200.268px 284.954px" id="el1v0425l45u8" class="animable"/><path d="M189.68,281.44a14,14,0,0,0,1.43-.62,2.47,2.47,0,0,0,1.34-.91.8.8,0,0,0-.19-1,2,2,0,0,0-2-.07,3,3,0,0,0-1.59,1.38A.86.86,0,0,0,189.68,281.44Z" style="fill:#263238;transform-origin:190.561px 280.041px" id="el7p8nrvni5k" class="animable"/><path d="M201.56,281.06c-.53,0-1-.1-1.55-.16a2.58,2.58,0,0,1-1.55-.47.81.81,0,0,1-.1-1,2,2,0,0,1,1.91-.66,2.87,2.87,0,0,1,1.93.84A.85.85,0,0,1,201.56,281.06Z" style="fill:#263238;transform-origin:200.34px 279.896px" id="elbvki2slp5kn" class="animable"/><path d="M190.81,295.49c.2.35.36.79.76.94a3,3,0,0,0,1.3.06,0,0,0,0,1,0,.08,1.58,1.58,0,0,1-1.61.2,1.27,1.27,0,0,1-.6-1.26C190.69,295.44,190.78,295.44,190.81,295.49Z" style="fill:#263238;transform-origin:191.759px 296.18px" id="elcdfmqu501f5" class="animable"/><path d="M192.21,292.27a4,4,0,0,0,2.8,1.58,5,5,0,0,0,1.44,0,.81.81,0,0,0,.27-.05l.25-.05a.29.29,0,0,0,.22-.28h0a.43.43,0,0,0,0-.12h0v-.1c0-.91-.23-2.28-.23-2.28.34.14,2.08.78,2,.31a60.2,60.2,0,0,0-2.43-12,.11.11,0,0,0-.21,0c.35,3.76,1.36,7.43,1.77,11.21a7,7,0,0,0-1.93-.44c-.13.05.41,2.64.4,3.05v0a5.59,5.59,0,0,1-4.23-1C192.22,292.1,192.13,292.18,192.21,292.27Z" style="fill:#263238;transform-origin:195.571px 286.552px" id="el307oe9m79la" class="animable"/><path d="M195.48,293.8a4.44,4.44,0,0,1-1.87,1.24,1.93,1.93,0,0,1-1.21,0c-.86-.29-.83-1.09-.62-1.77a4.76,4.76,0,0,1,.47-1A5.79,5.79,0,0,0,195.48,293.8Z" style="fill:#263238;transform-origin:193.568px 293.704px" id="elf3c11fbjrk8" class="animable"/><path d="M193.61,295a1.93,1.93,0,0,1-1.21,0c-.86-.29-.83-1.09-.62-1.77A2.07,2.07,0,0,1,193.61,295Z" style="fill:#ff9bbc;transform-origin:192.633px 294.164px" id="el64l7pi8j83s" class="animable"/><path d="M174.41,285.88c4.48.77,7.39-4.37,6.78-8.8,0,0,11.83,2.82,13.4-6.76a9.51,9.51,0,0,0,7.36,5.13l1,3.69c1.27-.23,2.94-3.6.21-6.65,0,0,.28-4.83-3-8.07a6.59,6.59,0,0,0-7-1.71,10,10,0,0,0-7.05-2.53,8.52,8.52,0,0,0-6.72,4s-6.06.53-7.5,4.65a8.78,8.78,0,0,0,.44,7.17s-1.66,1.51-1.27,5.19C171.36,283.52,173.06,285.64,174.41,285.88Z" style="fill:#263238;transform-origin:187.816px 273.065px" id="elv4ehg3cpaim" class="animable"/><path d="M194.41,269.44a10.88,10.88,0,0,1-.22,2.35,9.48,9.48,0,0,1-.66,2.24,6.15,6.15,0,0,1-3.14,3.17,9.92,9.92,0,0,1-4.54.66c-.77-.11-1.56-.16-2.33-.3s-1.55-.34-2.33-.48c.74.26,1.51.49,2.27.74s1.57.31,2.36.46a9.74,9.74,0,0,0,4.8-.57,6.4,6.4,0,0,0,3.3-3.52A9.54,9.54,0,0,0,194.41,269.44Z" style="fill:#263238;transform-origin:187.854px 273.903px" id="el7hhf2cmghgm" class="animable"/><path d="M200,275.64a12.35,12.35,0,0,1-3.44-2.33,7.86,7.86,0,0,1-1.26-1.61,9.26,9.26,0,0,1-.82-1.93,5,5,0,0,0,.44,2.12,5.51,5.51,0,0,0,1.24,1.81A6.94,6.94,0,0,0,198,275,6.53,6.53,0,0,0,200,275.64Z" style="fill:#263238;transform-origin:197.24px 272.705px" id="elwj7o098i4k" class="animable"/><path d="M179,287s-3.41-5.85-6-4.68-.37,9.44,2.49,10.78a3,3,0,0,0,4.15-1.28Z" style="fill:#ad6359;transform-origin:175.747px 287.824px" id="elu9uzvuqbbfb" class="animable"/><path d="M173.61,284.64a0,0,0,0,0,0,.08c2,1,2.93,3,3.53,5.07a1.66,1.66,0,0,0-2.44-.66c-.06,0,0,.13,0,.12a1.85,1.85,0,0,1,2,.81,8.8,8.8,0,0,1,.83,1.72c.09.2.43.12.38-.09l0-.05C178.17,289,176.42,285.14,173.61,284.64Z" style="fill:#263238;transform-origin:175.773px 288.268px" id="el870l8piw04s" class="animable"/><path d="M169.57,313c-23.36,24.32-57.42,85.9-61.63,94.73-2.86,6,28.47,21.8,29.8,17.44,1.71-5.59,29-74.5,36.26-100.5C178,310.31,174.39,308,169.57,313Z" style="fill:#ad6359;transform-origin:141.737px 368.26px" id="el55bnnf50wyl" class="animable"/><path d="M139.22,421c-1.09,3-4.81,15.66-7.42,17.24s-16.25,1.24-23.14,1.24-8.24-1.91-8.12-4.28,14.55-2.83,14.55-2.83S95.8,437.93,91,438.84s-16,3.72-17.65-.3c-.73-1.82,2.34-3.65,2.34-3.65s-4.7,1.37-5.44-1c-.85-2.65,2.88-4.11,2.88-4.11s-2.93.59-3-1.57C69.93,423.4,88.27,421,88.27,421s-14,6.84-14.49,2.89c-.63-5.46,28.16-11.45,31.16-13.83a20.34,20.34,0,0,0,4.8-5.92Z" style="fill:#ad6359;transform-origin:104.672px 422.392px" id="el1rxpgzokaal" class="animable"/><path d="M100.64,436.43a2.13,2.13,0,0,1,.65-1.84A5.72,5.72,0,0,1,103,433.5a21.71,21.71,0,0,1,4-1.28c2.71-.69,5.49-1.18,8.26-1.9a33.86,33.86,0,0,0-8.5,1,16,16,0,0,0-4.06,1.55,5.48,5.48,0,0,0-1.69,1.46A2.19,2.19,0,0,0,100.64,436.43Z" style="fill:#263238;transform-origin:107.889px 433.374px" id="el539fw07npkj" class="animable"/><path d="M75.64,434.89c2-.49,3.94-1.05,5.89-1.61s3.89-1.17,5.84-1.75l5.81-1.82q2.89-.91,5.83-1.79A44,44,0,0,0,93,429c-2,.45-4,1-5.9,1.62s-3.88,1.24-5.78,2S77.49,434,75.64,434.89Z" style="fill:#263238;transform-origin:87.325px 431.405px" id="el6y7vklmkf0p" class="animable"/><path d="M94.35,423.1a37.5,37.5,0,0,0-5.57.77,53.14,53.14,0,0,0-10.71,3.37,37.94,37.94,0,0,0-5,2.57c1.77-.61,3.5-1.29,5.26-1.88s3.52-1.2,5.29-1.74,3.55-1.08,5.33-1.61S92.54,423.59,94.35,423.1Z" style="fill:#263238;transform-origin:83.71px 426.455px" id="el3gz0340szsz" class="animable"/><path d="M91.51,418.49a37.31,37.31,0,0,0-17,5.82c2.86-1,5.63-2.09,8.47-3S88.63,419.42,91.51,418.49Z" style="fill:#263238;transform-origin:83.01px 421.4px" id="elopiiqeq5v3k" class="animable"/><path d="M173.71,331.38c-5.55,23.84-32,89-32,89l-23.8-11.47-12-5.8s40.88-63.86,57.59-84.75q1.94-2.4,3.55-4.13C177.35,303.19,178,313,173.71,331.38Z" style="fill:#a6a6a6;transform-origin:141.057px 364.983px" id="elh3l86pbmd4c" class="animable"/><path d="M143.65,413.3c-14-8.13-29.95-14.54-32.66-15.86-.12-.06-.21.15-.08.21,2.72,1.15,20.16,10.46,32.65,15.88C143.71,413.59,143.78,413.38,143.65,413.3Z" style="fill:#263238;transform-origin:127.282px 405.485px" id="elhkh6fyhnw1" class="animable"/><path d="M155.35,385.51l9.28-26.15c1.58-4.35,3.06-8.72,4.55-13.1s2.91-8.78,4.13-13.24a138,138,0,0,1-3.58,13.41c-1.37,4.43-2.87,8.81-4.39,13.18s-3.14,8.71-4.81,13S157.17,381.26,155.35,385.51Z" style="fill:#263238;transform-origin:164.33px 359.265px" id="elvmcaxbzig7o" class="animable"/><path d="M173.92,335.84a11.86,11.86,0,0,1-1.07,2.6,11.32,11.32,0,0,1-.75,1.19,6.32,6.32,0,0,1-.93,1.07c.39-.87.8-1.68,1.24-2.5A18.47,18.47,0,0,1,173.92,335.84Z" style="fill:#263238;transform-origin:172.545px 338.27px" id="el89i374whpo" class="animable"/></g><g id="freepik--Plant--inject-82" class="animable" style="transform-origin:84.76px 234.995px"><path d="M82.18,181.33s-21.42-3-16.42-28.86C65.76,152.47,89.69,157.84,82.18,181.33Z" style="fill:#ff501a;transform-origin:74.3211px 166.9px" id="elywix4j0qs6" class="animable"/><g id="elpjmmxv85ew"><path d="M82.18,181.33s-21.42-3-16.42-28.86C65.76,152.47,89.69,157.84,82.18,181.33Z" style="opacity:.1;transform-origin:74.3211px 166.9px" id="ellui7mx3q0ln" class="animable"/></g><path d="M81.09,175.93a40.6,40.6,0,0,0-1.46-3.85c0-.17,0-.33,0-.49l-.09-1.07c-.06-.77-.11-1.54-.15-2.32-.09-1.54-.19-3.09-.22-4.63a.07.07,0,0,0-.13,0c0,1.55,0,3.09,0,4.64,0,.78.07,1.55.12,2.32,0,.17,0,.34,0,.51a46.07,46.07,0,0,0-4.3-7.34,37.24,37.24,0,0,0-2.34-3c-.85-1-1.75-1.91-2.62-2.88,0-.06-.15,0-.09.1A37.54,37.54,0,0,1,74,163.44c.65,1,1.26,2,1.85,3l-.2-.08-.76-.31-1.75-.66c-1.15-.42-2.3-.84-3.45-1.28a.06.06,0,0,0,0,.12c1.13.46,2.26.94,3.39,1.42l1.66.72.83.34a2.42,2.42,0,0,0,.57.2c.43.78.86,1.55,1.25,2.35a53.11,53.11,0,0,1,2.62,6.17c0,.15.1.3.16.44a12.84,12.84,0,0,0-1.76-.84l-2.22-1c-1.5-.69-3-1.39-4.43-2.21-.07,0-.14.08-.06.12,1.47.8,2.91,1.66,4.38,2.46.74.4,1.48.79,2.24,1.15a7,7,0,0,0,2,.81,25.36,25.36,0,0,1,1.4,6.07c.24,2.93.21,5.88.28,8.81,0,.05.08,0,.08,0,.21-2.65.33-5.34.35-8A23.34,23.34,0,0,0,81.09,175.93Z" style="fill:#263238;transform-origin:76.03px 174.529px" id="el9igas837c5k" class="animable"/><path d="M77.8,160.73a25.72,25.72,0,0,0-.22,4.56s.06,0,.07,0c.08-1.51.1-3,.27-4.52C77.93,160.67,77.8,160.64,77.8,160.73Z" style="fill:#263238;transform-origin:77.7397px 162.983px" id="elyv2crl1dxpk" class="animable"/><path d="M71.67,162a16.31,16.31,0,0,1-2.75-1.35c-.07,0-.14.07-.07.11a10.37,10.37,0,0,0,2.79,1.33S71.72,162,71.67,162Z" style="fill:#263238;transform-origin:70.2537px 161.37px" id="elp78bbx47ene" class="animable"/><path d="M82.86,222.38c0-2.37-.06-4.73-.09-7.1,0-7.86-.11-15.72-.25-23.58q-.17-9.36-.44-18.72a.09.09,0,0,0,0-.08l0-5.11s0-.07-.1-.07-.1,0-.1.07l0,5.12s0,0,0,.07c-.32,11.11-.6,22.22-.66,33.33,0,2.25,0,4.51,0,6.77-.07,7.24-.11,14.49-.08,21.73l0,3.46c0,6.62.07,13.25.08,19.88,0,.35.39.53.81.55s1-.18,1-.58c0-7.31.06-14.62,0-21.92Q82.9,229.29,82.86,222.38Z" style="fill:#263238;transform-origin:82.0933px 213.211px" id="el0tctrf98axx" class="animable"/><path d="M73.91,215.19s-10.3-7.63-20.08-2.48-11.31,25-11.31,25,14.36,2.06,23.4-6.55C74.64,222.91,73.91,215.19,73.91,215.19Z" style="fill:#ff501a;transform-origin:58.2225px 224.425px" id="elvhuc1vedscp" class="animable"/><g id="elingtkrcxxxr"><path d="M73.91,215.19s-10.3-7.63-20.08-2.48-11.31,25-11.31,25,14.36,2.06,23.4-6.55C74.64,222.91,73.91,215.19,73.91,215.19Z" style="opacity:.1;transform-origin:58.2225px 224.425px" id="el4omorip6xvx" class="animable"/></g><path d="M76.72,215.66a12.34,12.34,0,0,0-6-.78,8.81,8.81,0,0,0-1.26-.12L68,214.65c-1-.08-2-.14-3-.21-2-.16-4.08-.28-6.1-.48-.08,0-.09.12,0,.12,2,.26,4,.55,6,.75,1,.1,2.07.21,3.11.29.25,0,.5,0,.76.07-.31.07-.62.14-.92.23a24.43,24.43,0,0,0-4.67,1.89c-.81.15-1.62.38-2.41.56-1.28.3-2.55.63-3.81,1-2.5.66-5,1.4-7.46,2.12a.06.06,0,1,0,0,.12c2.48-.6,5-1.16,7.46-1.75l3.62-.87,1-.22a30.25,30.25,0,0,0-7.33,6.37,40,40,0,0,0-5.09,8c0,.08.07.15.11.07a39.37,39.37,0,0,1,6.16-8.08c0,.14-.09.27-.13.41l-.57,1.82c-.39,1.22-.77,2.43-1.13,3.65,0,.08.09.1.12,0,.44-1.18.85-2.36,1.26-3.54l.62-1.74.3-.91c0-.09.07-.18.1-.27a37.25,37.25,0,0,1,3.66-3.12,27.18,27.18,0,0,1,5.47-3.13c0,.17-.07.35-.11.52l-.3,1.41c-.2,1-.39,2-.58,2.93-.39,2-.63,4-1,6,0,.08.11.12.13,0,.46-2,1.06-4,1.51-6,.22-1,.45-2,.66-3,.09-.47.19-1,.28-1.42.05-.26.12-.52.15-.78.18-.08.37-.17.56-.24A16.28,16.28,0,0,1,75,216.1a8.43,8.43,0,0,1,6.2,5c.09.22.45.08.39-.15A8,8,0,0,0,76.72,215.66Z" style="fill:#263238;transform-origin:65.3784px 223.353px" id="elq1uov1jjsc" class="animable"/><path d="M61,224.15l-.87,3.92a30.66,30.66,0,0,0-.72,3.8c0,.06.07.06.09,0a29.11,29.11,0,0,0,.87-3.83c.25-1.29.51-2.58.76-3.87C61.09,224.1,61,224.07,61,224.15Z" style="fill:#263238;transform-origin:60.27px 228.009px" id="elfx2zr2h5yu" class="animable"/><path d="M51,227.47c-1.31.66-2.59,1.42-4,2-.08,0,0,.17.06.12a44.21,44.21,0,0,0,3.93-2S51,227.45,51,227.47Z" style="fill:#263238;transform-origin:48.9832px 228.534px" id="el5gpz51d3xnk" class="animable"/><path d="M76.23,201.17s-12.59.8-18.45-7.5-4.54-20.16-4.54-20.16,13.23,1.61,18.48,7.57S76.23,201.17,76.23,201.17Z" style="fill:#ff501a;transform-origin:64.6892px 187.35px" id="elbwrnqu3n6u7" class="animable"/><path d="M82.14,213.59c-.44-1.34-1-2.67-1.48-4s-1-2.53-1.57-3.77a77.21,77.21,0,0,0-3.78-7.42c-.88-1.53-1.84-3-2.82-4.48,0-.22-.06-.44-.09-.67l-.18-1.17c-.13-.79-.26-1.59-.4-2.38-.29-1.74-.65-3.47-.92-5.21,0-.08-.15-.08-.13,0,.25,1.72.42,3.45.66,5.17.12.84.23,1.69.36,2.53,0,.31.1.61.14.92A88.48,88.48,0,0,0,65.71,185l-.92-1c0-.1-.08-.19-.12-.29s-.19-.48-.27-.72c-.19-.5-.37-1-.55-1.5-.35-1-.67-2-.94-3,0-.08-.14,0-.12,0,.25,1,.52,2.07.82,3.09.15.49.31,1,.48,1.46l.09.24c-1.61-1.75-3.28-3.44-5-5.11a.06.06,0,1,0-.09.09A89.94,89.94,0,0,1,68,189.23a8,8,0,0,0-.93-.24c-1-.18-1.95-.32-2.93-.45-2.05-.26-4.09-.52-6.14-.84-.08,0-.11.11,0,.13,2,.38,3.88.82,5.82,1.27.92.21,1.83.39,2.76.57a17.34,17.34,0,0,1,2.21.63l.61.87c.93,1.34,1.81,2.72,2.68,4.1L70.8,195c-1-.19-2-.37-2.93-.53-1.92-.31-3.84-.65-5.74-1.08-.08,0-.11.11,0,.13,1.92.45,3.83,1,5.74,1.49.92.24,1.85.47,2.78.67L72,196a3.19,3.19,0,0,0,.57.09c1.84,3,3.57,6,5.16,9.15.71,1.37,1.38,2.76,2,4.15s1.25,2.89,1.87,4.34C81.78,214,82.24,213.91,82.14,213.59Z" style="fill:#263238;transform-origin:70.0412px 196.02px" id="eluruv49eav6" class="animable"/><path d="M69.25,184.66c-.24-1.21-.49-2.4-.76-3.6,0-.08-.14,0-.12,0,.24,1.18.46,2.36.68,3.55a35.37,35.37,0,0,0,.71,3.52s0,0,0,0A24.41,24.41,0,0,0,69.25,184.66Z" style="fill:#263238;transform-origin:69.064px 184.577px" id="el6ftqsm4u8ng" class="animable"/><path d="M61.91,184.31c-.59-.3-1.2-.53-1.81-.77l-1-.37-.48-.2a1.81,1.81,0,0,1-.53-.23c-.1-.07-.16.1-.07.11a2.55,2.55,0,0,1,.54.22l.48.22.92.41a19.93,19.93,0,0,0,1.86.73C61.93,184.45,62,184.34,61.91,184.31Z" style="fill:#263238;transform-origin:59.9635px 183.578px" id="elguqwlm7miz" class="animable"/><path d="M89.12,191.27s7.62-14.24,19.21-16.44S127,184.55,127,184.55s-8.45,10.8-19.09,12.69S89.12,191.27,89.12,191.27Z" style="fill:#ff501a;transform-origin:108.06px 186.046px" id="elgoce6av2egq" class="animable"/><path d="M116.1,181.21a31.47,31.47,0,0,0-9.09.11l.52-.28,2.57-1.32a59.42,59.42,0,0,1,5.44-2.66.07.07,0,1,0-.05-.12c-1.81.84-3.69,1.55-5.51,2.39-.91.42-1.81.85-2.69,1.32-.57.31-1.21.59-1.77.95a32.72,32.72,0,0,0-7.37,2.45c.49-.52,1-1.05,1.45-1.58,1.08-1.18,2.14-2.42,3.33-3.5a.06.06,0,0,0-.09-.09c-1.22,1.1-2.5,2.12-3.67,3.27-.57.55-1.12,1.13-1.65,1.72-.27.3-.53.6-.79.92a30.54,30.54,0,0,0-15.54,21c0,.08.1.12.12,0a35.12,35.12,0,0,1,8.53-14.42,33.56,33.56,0,0,1,15.53-9,33.94,33.94,0,0,1,10.72-1A.12.12,0,0,0,116.1,181.21Z" style="fill:#263238;transform-origin:98.6579px 191.393px" id="el04xpf07w83xr" class="animable"/><g id="elwfx2ajcv8lk"><path d="M127,184.56s-8.45,10.8-19.09,12.68c-8.12,1.44-14.8-2.8-17.51-4.88l-.58-1s5.49-4.63,15.87-7.3S127,184.56,127,184.56Z" style="opacity:.1;transform-origin:108.41px 190.261px" id="ellh96wzlq3f" class="animable"/></g><path d="M109.37,176.13a30.06,30.06,0,0,0-2.57,1.7,16.12,16.12,0,0,0-2.24,2c-.06.07,0,.15.1.09.77-.66,1.54-1.33,2.34-2a24.65,24.65,0,0,1,2.44-1.75C109.51,176.2,109.44,176.09,109.37,176.13Z" style="fill:#263238;transform-origin:107.003px 178.031px" id="el4b137fni83a" class="animable"/><path d="M115.73,178.54l-1.3.52-1.29.53c-.09,0,0,.19,0,.15l1.29-.52c.44-.18.86-.38,1.29-.55C115.85,178.64,115.81,178.51,115.73,178.54Z" style="fill:#263238;transform-origin:114.452px 179.141px" id="el1nyv6enxbqf" class="animable"/><path d="M87.6,209.18s2,14.12,12.65,19.06,23.57,0,23.57,0S118.73,197.69,87.6,209.18Z" style="fill:#ff501a;transform-origin:105.71px 218.516px" id="elwnr6narrtil" class="animable"/><g id="el4y19l89485t"><path d="M87.6,209.18s2,14.12,12.65,19.06,23.57,0,23.57,0S118.73,197.69,87.6,209.18Z" style="opacity:.1;transform-origin:105.71px 218.516px" id="elsnjnq9bwbii" class="animable"/></g><path d="M116.5,219.06c-1-.11-2-.28-2.92-.46-.48-.08-1-.17-1.43-.27l-.74-.15-.86-.79a43.56,43.56,0,0,0-6.5-4.71,37.55,37.55,0,0,0-3.89-2h.2l3.49.15c2.34.11,4.66.16,7,.31.09,0,.08-.12,0-.13-2.34-.16-4.66-.41-7-.62l-3.39-.3L98.7,210l-.45,0c-.61-.22-1.22-.44-1.83-.63a16.61,16.61,0,0,0-9-.5c-2.67.69-5.33,2.44-6,5.26,0,.09.12.16.16.06,1-2.35,3.61-3.54,6-4a14.39,14.39,0,0,1,4.81-.09,11.75,11.75,0,0,0,.53,2.14c.3,1,.59,2,.89,3,.6,2,1.26,3.94,1.85,5.93,0,.08.15,0,.13,0-.5-2-.91-4-1.39-6l-.72-2.93a17.53,17.53,0,0,0-.54-2,23.08,23.08,0,0,1,2.76.65,40.18,40.18,0,0,1,4.81,1.76c.16,1,.38,2,.61,3,.29,1.24.62,2.48,1,3.7a.06.06,0,0,0,.12,0c0-.08,0-.15-.05-.23h0c-.24-1.16-.49-2.31-.74-3.46-.19-.93-.37-1.87-.58-2.8,1.32.6,2.62,1.24,3.87,2,0,.29.1.59.14.85.08.48.17,1,.26,1.45.2,1.09.41,2.17.67,3.25a52.76,52.76,0,0,0,1.83,6.14.06.06,0,0,0,0,.08l.06.07c0,.06.12,0,.11-.06-.49-2.1-1-4.17-1.51-6.27-.23-1-.46-2.1-.68-3.15l-.3-1.58c0-.15,0-.31-.07-.47a42.92,42.92,0,0,1,4.13,2.75,44.5,44.5,0,0,1,6.33,5.78c.08.09.23,0,.16-.13-.81-1.06-1.62-2.1-2.53-3.08-.54-.58-1.09-1.13-1.65-1.67l.17,0c.5.09,1,.16,1.5.23,1,.13,2,.22,3,.34C116.55,219.19,116.58,219.07,116.5,219.06Z" style="fill:#263238;transform-origin:98.99px 217.599px" id="elsw17g96vkwf" class="animable"/><path d="M109,223.85h0l-.06-.37c0-.16-.11-.31-.13-.46h0c-.22-.94-.41-1.89-.58-2.85,0-.06-.12,0-.11,0a11.46,11.46,0,0,0,.8,3.69s.09,0,.08,0Z" style="fill:#263238;transform-origin:108.56px 222.002px" id="elfu8inl7h9k5" class="animable"/><path d="M100.15,223.62a.06.06,0,0,0-.06-.06c-.3-1.25-.59-2.5-.84-3.76-.14-.66-.28-1.32-.41-2-.06-.35-.13-.71-.19-1.07a3.55,3.55,0,0,0-.23-.92.07.07,0,0,0-.12,0,5.94,5.94,0,0,0,.27,1.9c.13.68.26,1.37.41,2.06.31,1.39.66,2.78,1,4.15,0,.08.15.06.14,0S100.16,223.72,100.15,223.62Z" style="fill:#263238;transform-origin:99.225px 219.874px" id="elpfxzo2tymrk" class="animable"/><path d="M115.53,215c-1.94-.26-3.88-.55-5.82-.78-.08,0-.11.11,0,.13,1.94.28,3.88.52,5.82.78C115.58,215.13,115.62,215,115.53,215Z" style="fill:#263238;transform-origin:112.611px 214.675px" id="elubiipo8fjva" class="animable"/><path d="M82.16,176.07s-6.5-28.51,24.13-40C106.29,136,114.77,173.55,82.16,176.07Z" style="fill:#ff501a;transform-origin:94.4328px 156.07px" id="el8hs28o5eldb" class="animable"/><path d="M88.77,159.9l.33-.2,1.73-1,3.55-2c2.34-1.31,4.65-2.67,7-3.95.07,0,0-.15-.07-.11-2.36,1.28-4.75,2.48-7.13,3.73l-3.51,1.86-1.43.76c1-1.94,2.11-3.84,3.31-5.67,1.6-2.44,3.35-4.77,5.18-7a.11.11,0,0,0-.15-.15,48.56,48.56,0,0,0-7.08,8.69,2.91,2.91,0,0,1,0-.3q0-1.06.06-2.13c0-1.39,0-2.78,0-4.17a.07.07,0,0,0-.13,0c-.06,1.37-.23,2.73-.3,4.1,0,.69-.07,1.37-.09,2,0,.37,0,.79,0,1.2-.64,1-1.24,2-1.81,3a53,53,0,0,0-2.74,5.74q0-1.07-.12-2.13c-.09-1.56-.28-3.11-.34-4.67,0-.09-.14-.08-.13,0,0,1.56,0,3.12,0,4.69,0,.78.05,1.56.1,2.33l.06.88a52,52,0,0,0-2.32,7.83A85.56,85.56,0,0,0,81.58,182s0,0,0,0a45.81,45.81,0,0,1,1.62-7.68c.38-1.35.78-2.68,1.21-4,1.28-.6,2.49-1.35,3.73-2s2.56-1.4,3.84-2.11c2.55-1.4,5.1-2.82,7.74-4.06.08,0,0-.15-.07-.11-2.67,1.21-5.36,2.36-8,3.67-1.31.66-2.59,1.36-3.86,2.08-1.06.6-2.16,1.2-3.17,1.88.29-.88.6-1.77.94-2.64A76.34,76.34,0,0,1,88.77,159.9Z" style="fill:#263238;transform-origin:91.4945px 164.078px" id="elbf0bj20ds3p" class="animable"/><path d="M86.19,153.38c0-.08-.14-.08-.13,0,.11,1.62.16,3.25.34,4.87a.07.07,0,0,0,.14,0C86.48,156.63,86.31,155,86.19,153.38Z" style="fill:#263238;transform-origin:86.2997px 155.82px" id="eliy8e0uczr3" class="animable"/><path d="M100.87,158.83c-1.92.77-3.85,1.5-5.76,2.3,0,0,0,.11,0,.09,1.94-.73,3.84-1.52,5.77-2.27A.06.06,0,1,0,100.87,158.83Z" style="fill:#263238;transform-origin:98.0226px 160.026px" id="elvv91esz8sn" class="animable"/><path d="M103.78,145.68a50.75,50.75,0,0,0-5.44,2.92.08.08,0,0,0,.08.14c1.78-1,3.59-2,5.43-3C103.93,145.75,103.86,145.65,103.78,145.68Z" style="fill:#263238;transform-origin:101.092px 147.212px" id="elc93qewlud9u" class="animable"/><rect id="elhkcjvnkzupc" width="44.17" height="46.56" x="59.15" y="237.71" style="fill:#455a64;transform-origin:81.235px 260.99px" class="animable"/><rect id="el5fi06fd93os" width="2.26" height="79.74" x="56.11" y="254.18" style="fill:#263238;transform-origin:57.24px 294.05px" class="animable"/><rect id="elgwua6qldz4" width="2.26" height="79.74" x="103.86" y="254.18" style="fill:#263238;transform-origin:104.99px 294.05px" class="animable"/><rect id="eld6bvjl7vhiq" width="2.26" height="79.74" x="81.19" y="254.18" style="fill:#263238;transform-origin:82.32px 294.05px" class="animable"/><rect id="elvwvsb6627ul" width="47.75" height="6.45" x="57.24" y="281.28" style="fill:#263238;transform-origin:81.115px 284.505px" class="animable"/></g><g id="freepik--speech-bubbles--inject-82" class="animable" style="transform-origin:254.895px 172.14px"><polygon points="124.7 113.46 219.7 113.46 219.7 63.6 124.7 63.6 124.7 63.6 124.7 113.46 124.7 113.46" style="fill:#455a64;transform-origin:172.2px 88.53px" id="el7shvwzw6x0j" class="animable"/><polygon points="234.4 113.46 219.7 113.46 219.7 98.15 234.4 113.46" style="fill:#455a64;transform-origin:227.05px 105.805px" id="el5h5fdcu1z4" class="animable"/><rect id="eludy47mldxd" width="76.81" height=".95" x="133.79" y="72.22" style="fill:#fff;transform-origin:172.195px 72.695px" class="animable"/><rect id="elb9f85kse6ub" width="47.63" height=".95" x="133.79" y="77.34" style="fill:#fff;transform-origin:157.605px 77.815px" class="animable"/><rect id="elbfp9ysk3og" width="65.25" height=".95" x="133.79" y="87.57" style="fill:#fff;transform-origin:166.415px 88.045px" class="animable"/><rect id="el6ll24e0yrtx" width="76.81" height=".95" x="133.79" y="92.69" style="fill:#fff;transform-origin:172.195px 93.165px" class="animable"/><rect id="el3c82ezf8ukc" width="76.81" height=".95" x="133.79" y="97.8" style="fill:#fff;transform-origin:172.195px 98.275px" class="animable"/><rect id="eloxqm5nvy8s" width="37.87" height=".95" x="133.79" y="102.92" style="fill:#fff;transform-origin:152.725px 103.395px" class="animable"/><polygon points="163.71 165.64 219.07 165.64 219.07 131.87 163.71 131.87 163.71 131.87 163.71 165.64 163.71 165.64" style="fill:#ff501a;transform-origin:191.39px 148.755px" id="elifv17rbrvu" class="animable"/><polygon points="219.07 146.57 219.07 131.87 234.38 131.87 219.07 146.57" style="fill:#ff501a;transform-origin:226.725px 139.22px" id="el4isqzc9ez4h" class="animable"/><path d="M180.66,148.75a2.23,2.23,0,1,1-2.23-2.23A2.23,2.23,0,0,1,180.66,148.75Z" style="fill:#fff;transform-origin:178.43px 148.75px" id="elfdw0zwqi92m" class="animable"/><path d="M193.62,148.75a2.23,2.23,0,1,1-2.23-2.23A2.23,2.23,0,0,1,193.62,148.75Z" style="fill:#fff;transform-origin:191.39px 148.75px" id="el5p9f46reate" class="animable"/><path d="M206.58,148.75a2.23,2.23,0,1,1-2.23-2.23A2.23,2.23,0,0,1,206.58,148.75Z" style="fill:#fff;transform-origin:204.35px 148.75px" id="elmw29c44lvvh" class="animable"/><rect id="elrl8cao0t15r" width="95" height="43.97" x="290.09" y="236.71" style="fill:#ff501a;transform-origin:337.59px 258.695px" class="animable"/><polygon points="275.39 280.68 290.09 280.68 290.09 265.37 275.39 280.68" style="fill:#ff501a;transform-origin:282.74px 273.025px" id="el9xv3xbb2ft" class="animable"/><rect id="eliubfisba0l9" width="68.99" height=".95" x="299.37" y="259.67" style="fill:#fff;transform-origin:333.865px 260.145px" class="animable"/><rect id="elhc01gpatub" width="58.18" height=".95" x="299.37" y="264.79" style="fill:#fff;transform-origin:328.46px 265.265px" class="animable"/><rect id="eld35su5e42fm" width="61.33" height=".95" x="299.37" y="249.44" style="fill:#fff;transform-origin:330.035px 249.915px" class="animable"/><rect id="elf3nc4jsjgdm" width="75.06" height=".95" x="299.37" y="244.32" style="fill:#fff;transform-origin:336.9px 244.795px" class="animable"/><rect id="eli285e9y63hn" width="62.51" height=".95" x="299.37" y="269.9" style="fill:#fff;transform-origin:330.625px 270.375px" class="animable"/></g><defs><filter id="active" height="200%"><feMorphology in="SourceAlpha" operator="dilate" radius="2" result="DILATED"/><feFlood flood-color="#32DFEC" flood-opacity="1" result="PINK"/><feComposite in="PINK" in2="DILATED" operator="in" result="OUTLINE"/><feMerge><feMergeNode in="OUTLINE"/><feMergeNode in="SourceGraphic"/></feMerge></filter><filter id="hover" height="200%"><feMorphology in="SourceAlpha" operator="dilate" radius="2" result="DILATED"/><feFlood flood-color="red" flood-opacity=".5" result="PINK"/><feComposite in="PINK" in2="DILATED" operator="in" result="OUTLINE"/><feMerge><feMergeNode in="OUTLINE"/><feMergeNode in="SourceGraphic"/></feMerge><feColorMatrix type="matrix" values="0 0 0 0 0 0 1 0 0 0 0 0 0 0 0 0 0 0 1 0"/></filter></defs></svg>